<!-- Generated by IcoMoon.io -->
<svg version="1.1" xmlns="http://www.w3.org/2000/svg" width="27" height="32" viewBox="0 0 27 32">
<title>account</title>
<path d="M18.69 13.798c-1.468 1.468-3.254 2.202-5.357 2.202s-3.909-0.734-5.417-2.202c-1.468-1.508-2.202-3.313-2.202-5.417s0.734-3.889 2.202-5.357c1.508-1.508 3.314-2.262 5.417-2.262s3.889 0.754 5.357 2.262c1.508 1.468 2.262 3.254 2.262 5.357s-0.754 3.909-2.262 5.417zM17.381 4.333c-1.111-1.111-2.46-1.667-4.048-1.667s-2.937 0.556-4.048 1.667c-1.111 1.111-1.667 2.46-1.667 4.048s0.556 2.937 1.667 4.048c1.111 1.111 2.46 1.667 4.048 1.667s2.937-0.556 4.048-1.667c1.111-1.111 1.667-2.46 1.667-4.048s-0.556-2.937-1.667-4.048zM16.369 18.857c2.817 0 5.238 1.012 7.262 3.036s3.036 4.445 3.036 7.262c0 0.595-0.198 1.091-0.595 1.488s-0.893 0.595-1.488 0.595h-22.5c-0.595 0-1.091-0.198-1.488-0.595s-0.595-0.893-0.595-1.488c0-2.817 1.012-5.238 3.036-7.262s4.444-3.036 7.262-3.036h6.071zM24.583 29.333c0.119 0 0.179-0.060 0.179-0.179 0-1.508-0.377-2.897-1.131-4.167-0.754-1.309-1.786-2.341-3.095-3.095-1.27-0.754-2.659-1.131-4.167-1.131h-6.071c-2.302 0-4.286 0.833-5.952 2.5-1.627 1.627-2.44 3.591-2.44 5.893 0 0.119 0.060 0.179 0.179 0.179h22.5z"></path>
</svg>
