<!-- Generated by IcoMoon.io -->
<svg version="1.1" xmlns="http://www.w3.org/2000/svg" width="29" height="32" viewBox="0 0 29 32">
<title>angle-double-down</title>
<path d="M24.385 15.479c0.365-0.365 0.807-0.521 1.328-0.469s0.964 0.26 1.328 0.625c0.365 0.365 0.521 0.807 0.469 1.328s-0.261 0.964-0.625 1.328l-11.875 10.625c-0.365 0.313-0.781 0.469-1.25 0.469s-0.885-0.156-1.25-0.469l-11.875-10.625c-0.365-0.365-0.573-0.807-0.625-1.328s0.104-0.964 0.469-1.328c0.365-0.417 0.833-0.625 1.406-0.625 0.469 0 0.885 0.156 1.25 0.469l10.625 9.531 10.625-9.531zM12.51 13.916l-11.875-10.625c-0.365-0.365-0.573-0.807-0.625-1.328s0.104-0.964 0.469-1.328c0.365-0.417 0.833-0.625 1.406-0.625 0.469 0 0.885 0.156 1.25 0.469l10.625 9.531 10.625-9.531c0.365-0.365 0.807-0.521 1.328-0.469s0.964 0.26 1.328 0.625c0.365 0.365 0.521 0.807 0.469 1.328s-0.261 0.964-0.625 1.328l-11.875 10.625c-0.365 0.312-0.781 0.469-1.25 0.469s-0.885-0.156-1.25-0.469z"></path>
</svg>
