<!-- Generated by IcoMoon.io -->
<svg version="1.1" xmlns="http://www.w3.org/2000/svg" width="34" height="32" viewBox="0 0 34 32">
<title>belgium</title>
<path fill="#514633" d="M32.94 16.282l-0.585-0.313c-0.081-0.043-0.123-0.133-0.105-0.222l0.182-0.912c0.067-0.337-0.012-0.688-0.218-0.963s-0.518-0.45-0.859-0.481l-5.366-0.493c-0.114-0.011-0.159-0.090-0.176-0.136s-0.032-0.135 0.048-0.216l1.645-1.645c0.776-0.776 1.13-1.843 0.971-2.928s-0.803-2.007-1.768-2.528l-0.246-0.133c-0.95-0.512-2.101-0.344-2.864 0.419-0.041 0.041-0.089 0.061-0.143 0.061-0.063 0-0.178-0.035-0.205-0.164l-0.427-2.019c-0.092-0.435-0.414-0.784-0.84-0.91s-0.887-0.010-1.202 0.305c-0.352 0.353-0.797 0.58-1.28 0.661-0.235-0.779-0.66-1.512-1.274-2.126-1.992-1.992-5.233-1.992-7.224 0-1.083 1.083-1.576 2.535-1.481 3.955-0.138 0.060-0.264 0.145-0.374 0.254l-0.414 0.414c-0.078 0.078-0.164 0.065-0.209 0.051s-0.122-0.055-0.14-0.163l-0.172-1.043c-0.067-0.405-0.331-0.746-0.706-0.912s-0.806-0.131-1.15 0.093l-2.151 1.399c-0.233 0.151-0.299 0.463-0.147 0.695s0.463 0.299 0.695 0.147l2.151-1.399c0.082-0.053 0.158-0.033 0.196-0.016s0.105 0.059 0.12 0.155l0.172 1.042c0.074 0.45 0.389 0.817 0.824 0.957 0.123 0.040 0.249 0.059 0.374 0.059 0.316 0 0.623-0.124 0.855-0.355l0.273-0.273c0.198 0.672 0.537 1.311 1.016 1.87v12.765c-0.025-0.023-0.044-0.053-0.055-0.087l-0.83-2.62c-0.161-0.505-0.625-0.845-1.155-0.845h-2.166c-0.108 0-0.198-0.084-0.206-0.191l-0.18-2.447c-0.047-0.64-0.569-1.123-1.214-1.123-0.487 0-0.911 0.28-1.106 0.731-0.043 0.099-0.156 0.148-0.257 0.112l-0.364-0.127c-1.314-0.46-2.197-1.704-2.197-3.096v-2.058c0-0.386 0.193-0.743 0.517-0.953l1.552-1.009c0.233-0.151 0.299-0.463 0.148-0.695s-0.463-0.299-0.695-0.148l-1.552 1.009c-0.61 0.397-0.975 1.068-0.975 1.796v2.058c0 1.819 1.153 3.445 2.87 4.045l0.363 0.127c0.597 0.21 1.262-0.081 1.513-0.662 0.013-0.031 0.054-0.125 0.183-0.125 0.033 0 0.198 0.009 0.212 0.192l0.18 2.447c0.046 0.63 0.576 1.123 1.208 1.123h2.166c0.091 0 0.17 0.058 0.197 0.144l0.83 2.62c0.161 0.505 0.625 0.845 1.155 0.845h2.292c0.114 0 0.206 0.093 0.206 0.206v1.785c0 1.134 0.923 2.057 2.057 2.057h1.005c0.784 0 1.489-0.436 1.84-1.137l1.32-2.64c0.173-0.345 0.595-0.486 0.94-0.314 0.239 0.12 0.388 0.361 0.388 0.628 0 0.1-0.021 0.196-0.063 0.288l-1.294 2.856c-0.146 0.323-0.143 0.691 0.006 1.012s0.431 0.559 0.772 0.655l2.7 0.753c0.054 0.015 0.099 0.051 0.126 0.1l1.316 2.403c0.356 0.649 1.023 1.031 1.733 1.031 0.179 0 0.36-0.024 0.54-0.075l1.632-0.457c0.552-0.155 1.010-0.54 1.256-1.059s0.256-1.117 0.026-1.642l-1.31-3.002c-0.023-0.052-0.023-0.111-0.001-0.163l1.457-3.424c0.032-0.076 0.107-0.125 0.189-0.125h1.502c1.217 0 2.259-0.828 2.534-2.014l0.199-0.859c0.264-1.142-0.273-2.326-1.306-2.879zM11.715 2.25c0.8-0.8 1.851-1.2 2.901-1.2s2.101 0.4 2.901 1.2c1.6 1.6 1.6 4.203 0 5.803l-2.901 2.901-2.901-2.901c-1.6-1.6-1.6-4.203 0-5.803zM33.267 18.934l-0.199 0.859c-0.169 0.727-0.808 1.235-1.554 1.235h-1.502c-0.487 0-0.924 0.29-1.115 0.737l-1.457 3.423c-0.13 0.305-0.128 0.654 0.005 0.959l1.31 3.003c0.113 0.259 0.108 0.554-0.013 0.809s-0.347 0.446-0.619 0.522l-1.632 0.457c-0.44 0.123-0.9-0.071-1.12-0.471l-1.316-2.404c-0.117-0.213-0.298-0.387-0.513-0.497v-1.288c0-0.278-0.225-0.503-0.503-0.503s-0.503 0.225-0.503 0.503v0.982l-1.918-0.535c-0.080-0.022-0.117-0.080-0.132-0.112s-0.035-0.098-0.001-0.173l1.293-2.855c0.101-0.222 0.152-0.459 0.152-0.703 0-0.651-0.361-1.236-0.944-1.527-0.841-0.42-1.868-0.078-2.289 0.763l-1.32 2.641c-0.179 0.359-0.54 0.581-0.94 0.581h-1.005c-0.58 0-1.052-0.472-1.052-1.052v-1.785c0-0.668-0.544-1.212-1.212-1.212h-1.429v-11.793l2.52 2.52c0.098 0.098 0.227 0.147 0.355 0.147s0.257-0.049 0.355-0.147l3.257-3.257c1.123-1.123 1.612-2.643 1.469-4.112 0.677-0.119 1.301-0.441 1.795-0.937 0.076-0.076 0.161-0.065 0.205-0.052s0.121 0.051 0.143 0.155l0.427 2.019c0.044 0.208 0.139 0.393 0.268 0.543v17.888c0 0.278 0.225 0.503 0.503 0.503s0.503-0.225 0.503-0.503v-17.475c0.289-0.020 0.559-0.143 0.768-0.351 0.447-0.447 1.121-0.545 1.677-0.245l0.246 0.133c0.683 0.369 1.139 1.021 1.251 1.789s-0.138 1.523-0.687 2.072l-1.645 1.645c-0.336 0.336-0.444 0.822-0.283 1.268s0.555 0.752 1.029 0.796l5.367 0.493c0.079 0.007 0.125 0.054 0.146 0.082s0.053 0.086 0.037 0.164l-0.182 0.912c-0.105 0.527 0.143 1.052 0.616 1.305l0.584 0.313c0.634 0.34 0.963 1.066 0.801 1.766z"></path>
<path fill="#514633" d="M14.617 6.767c1.473 0 2.672-1.199 2.672-2.672s-1.199-2.672-2.672-2.672c-1.473 0-2.672 1.199-2.672 2.672s1.199 2.672 2.672 2.672zM14.617 2.428c0.919 0 1.667 0.748 1.667 1.667s-0.748 1.667-1.667 1.667c-0.919 0-1.667-0.748-1.667-1.667s0.748-1.667 1.667-1.667z"></path>
</svg>
