<!-- Generated by IcoMoon.io -->
<svg version="1.1" xmlns="http://www.w3.org/2000/svg" width="27" height="32" viewBox="0 0 27 32">
<title>cart</title>
<path d="M24.762 8.381c0.516 0 0.952 0.198 1.31 0.595 0.397 0.357 0.595 0.794 0.595 1.31v15.238c0 1.587-0.556 2.937-1.667 4.048s-2.46 1.667-4.048 1.667h-15.238c-1.587 0-2.937-0.556-4.048-1.667s-1.667-2.46-1.667-4.048v-15.238c0-0.516 0.179-0.952 0.536-1.31 0.397-0.397 0.853-0.595 1.369-0.595h5.714v-1.905c0-1.587 0.556-2.937 1.667-4.048s2.46-1.667 4.048-1.667c1.587 0 2.937 0.556 4.048 1.667s1.667 2.46 1.667 4.048v1.905h5.714zM9.524 6.476v1.905h7.619v-1.905c0-0.675-0.179-1.31-0.536-1.905-0.317-0.595-0.774-1.052-1.369-1.369-0.595-0.357-1.23-0.536-1.905-0.536-1.032 0-1.925 0.377-2.679 1.131s-1.131 1.647-1.131 2.679zM24.762 25.524v-15.238h-5.714v4.762c0 0.278-0.099 0.516-0.298 0.714-0.159 0.159-0.377 0.238-0.655 0.238s-0.516-0.079-0.714-0.238c-0.159-0.199-0.238-0.437-0.238-0.714v-4.762h-7.619v4.762c0 0.278-0.099 0.516-0.298 0.714-0.159 0.159-0.377 0.238-0.655 0.238s-0.516-0.079-0.714-0.238c-0.159-0.199-0.238-0.437-0.238-0.714v-4.762h-5.714v15.238c0 1.032 0.377 1.925 1.131 2.679s1.647 1.131 2.679 1.131h15.238c1.032 0 1.925-0.377 2.679-1.131s1.131-1.647 1.131-2.679z"></path>
</svg>
