<!-- Generated by IcoMoon.io -->
<svg version="1.1" xmlns="http://www.w3.org/2000/svg" width="32" height="32" viewBox="0 0 32 32">
<title>chat</title>
<path d="M28.861 8.481h-4.388v-2.561c0-1.794-1.408-3.253-3.14-3.253h-6.459c-0.346 0-0.625 0.29-0.625 0.648s0.279 0.648 0.625 0.648h6.459c1.042 0 1.889 0.878 1.889 1.957v2.561h-12.556c-1.731 0-3.139 1.46-3.139 3.253v6.521h-2.102c-0.881 0-1.732 0.33-2.396 0.929l-1.779 1.603v-14.867c0-1.079 0.847-1.957 1.889-1.957h6.238c0.345 0 0.625-0.29 0.625-0.648s-0.281-0.648-0.626-0.648h-6.238c-1.731 0-3.139 1.46-3.139 3.253v16.287c0 0.543 0.637 0.847 1.036 0.489l2.814-2.535c0.436-0.394 0.996-0.611 1.575-0.611h2.103v2.562c0 1.794 1.408 3.253 3.139 3.253h15.907c0.579 0 1.139 0.217 1.575 0.611l2.817 2.538c0.396 0.357 1.035 0.053 1.035-0.49v-16.29c0-1.794-1.408-3.253-3.139-3.253zM30.75 26.603l-1.782-1.605c-0.664-0.599-1.516-0.928-2.396-0.928h-15.907c-1.042 0-1.889-0.878-1.889-1.957v-10.378c0-1.079 0.847-1.956 1.889-1.956h13.181c0.002 0 0.004 0 0.005 0h5.009c1.042 0 1.889 0.878 1.889 1.957v14.868zM12.475 3.913c0.315-0.135 0.468-0.521 0.338-0.846s-0.501-0.485-0.816-0.35c-0.316 0.135-0.467 0.52-0.337 0.846s0.5 0.485 0.815 0.35z"></path>
</svg>
