<!-- Generated by IcoMoon.io -->
<svg version="1.1" xmlns="http://www.w3.org/2000/svg" width="54" height="32" viewBox="0 0 54 32">
<title>compare</title>
<path fill="#514633" d="M28.341 25.351c0.388 0 0.693 0.139 0.914 0.416 0.277 0.222 0.416 0.526 0.416 0.914s-0.139 0.72-0.416 0.997c-0.222 0.221-0.526 0.332-0.914 0.332h-17.289c-0.388 0-0.72-0.111-0.997-0.332-0.222-0.277-0.332-0.61-0.332-0.997v-22.026l-7.065 6.982c-0.61 0.665-1.247 0.693-1.912 0.083-0.61-0.665-0.582-1.302 0.083-1.912l9.309-9.309c0.61-0.665 1.219-0.665 1.829 0l9.309 9.309c0.665 0.61 0.665 1.219 0 1.829-0.222 0.277-0.526 0.416-0.914 0.416s-0.693-0.139-0.914-0.416l-7.065-6.982v20.697h15.959zM51.364 20.447c0.61-0.665 1.219-0.665 1.829 0 0.665 0.61 0.665 1.219 0 1.829l-9.309 9.309c-0.222 0.277-0.526 0.416-0.914 0.416s-0.693-0.139-0.914-0.416l-9.309-9.309c-0.665-0.61-0.693-1.219-0.083-1.829 0.665-0.665 1.302-0.665 1.912 0l7.065 6.982v-20.697h-15.959c-0.388 0-0.72-0.111-0.997-0.332-0.221-0.277-0.332-0.609-0.332-0.997s0.111-0.693 0.332-0.914c0.277-0.277 0.61-0.416 0.997-0.416h17.289c0.388 0 0.693 0.138 0.914 0.416 0.277 0.222 0.416 0.526 0.416 0.914v22.026l7.065-6.982z"></path>
</svg>
