<!-- Generated by IcoMoon.io -->
<svg version="1.1" xmlns="http://www.w3.org/2000/svg" width="38" height="32" viewBox="0 0 38 32">
<title>delivery</title>
<path d="M3.494 0.783c0-0.324 0.263-0.587 0.587-0.587h7.846c0.324 0 0.587 0.263 0.587 0.587s-0.263 0.587-0.587 0.587h-7.846c-0.324 0-0.587-0.263-0.587-0.587v0zM37.565 8.391v15.217c0 0.21-0.112 0.403-0.294 0.508l-13.178 7.608c-0.091 0.052-0.192 0.079-0.294 0.079s-0.203-0.026-0.294-0.079l-13.042-7.53h-9.878c-0.324 0-0.587-0.263-0.587-0.587s0.263-0.587 0.587-0.587h9.448v-6.434h-5.954c-0.324 0-0.587-0.263-0.587-0.587s0.263-0.587 0.587-0.587h5.954v-6.435h-9.448c-0.324 0-0.587-0.263-0.587-0.587s0.263-0.587 0.587-0.587h9.877l11.145-6.435h-5.272c-0.324 0-0.587-0.263-0.587-0.587s0.263-0.587 0.587-0.587h7.463c0.103 0 0.204 0.027 0.294 0.079l13.178 7.609c0.182 0.105 0.294 0.299 0.294 0.508v0zM11.209 23.27l12.004 6.931v-13.861l-3.504-2.023-0 4.975c0 0.21-0.112 0.403-0.294 0.508-0.091 0.052-0.192 0.079-0.293 0.079s-0.203-0.026-0.294-0.079l-3.822-2.206c-0.182-0.105-0.293-0.299-0.293-0.508v-5.653l-3.504-2.023v13.861h0zM19.122 12.621l12.004-6.931-2.648-1.529-12.004 6.931 2.648 1.529zM15.887 12.109v4.637l2.648 1.529 0-4.637-2.648-1.529zM35.804 8.391l-3.504-2.023-12.004 6.931 3.504 2.023 12.004-6.931zM23.8 1.461l-12.004 6.931 3.504 2.023 12.004-6.931-3.504-2.023zM36.391 23.27v-13.862l-12.004 6.931v13.861l12.004-6.931z"></path>
</svg>
