<!-- Generated by IcoMoon.io -->
<svg version="1.1" xmlns="http://www.w3.org/2000/svg" width="32" height="32" viewBox="0 0 32 32">
<title>envelope</title>
<path d="M29.156 6.667h-22.044c-1.564 0-2.844 1.292-2.844 2.87v1.076c0 0.395 0.32 0.717 0.711 0.717s0.711-0.323 0.711-0.717v-1.076c0-0.143 0.036-0.287 0.071-0.43l7.964 6.888-7.964 6.888c-0.036-0.143-0.071-0.287-0.071-0.43v-1.076c0-0.395-0.32-0.717-0.711-0.717s-0.711 0.323-0.711 0.717v1.076c0 1.579 1.28 2.87 2.844 2.87h22.044c1.564 0 2.844-1.292 2.844-2.87v-12.916c0-1.579-1.28-2.87-2.844-2.87zM6.827 8.138c0.071-0.036 0.178-0.036 0.284-0.036h22.044c0.107 0 0.213 0 0.284 0.036l-10.844 9.364c-0.284 0.215-0.64 0.215-0.924 0l-10.844-9.364zM29.156 23.886h-22.044c-0.107 0-0.213 0-0.284-0.036l8-6.924 1.92 1.686c0.391 0.359 0.889 0.538 1.387 0.538s0.996-0.18 1.387-0.538l1.92-1.686 8 6.924c-0.071 0.036-0.178 0.036-0.284 0.036zM30.578 22.452c0 0.143-0.036 0.287-0.071 0.43l-7.964-6.888 7.964-6.888c0.036 0.143 0.071 0.287 0.071 0.43v12.916zM2.133 14.2c0-0.395 0.32-0.717 0.711-0.717h4.267c0.391 0 0.711 0.323 0.711 0.717s-0.32 0.717-0.711 0.717h-4.267c-0.391 0-0.711-0.323-0.711-0.717zM7.111 18.505h-6.4c-0.391 0-0.711-0.323-0.711-0.717s0.32-0.717 0.711-0.717h6.4c0.391 0 0.711 0.323 0.711 0.717s-0.32 0.717-0.711 0.717z"></path>
</svg>
