<svg width="21" height="22" viewBox="0 0 21 22" fill="none" xmlns="http://www.w3.org/2000/svg">
<path d="M16.3594 6.21875L11.5781 11L16.3594 15.7812L18.4219 13.6719C18.8906 13.2031 19.4375 13.1094 20.0625 13.3906C20.6875 13.6406 21 14.0938 21 14.75V20C21 20.4062 20.8438 20.75 20.5312 21.0312C20.25 21.3438 19.9062 21.5 19.5 21.5H14.25C13.5938 21.5 13.125 21.1875 12.8438 20.5625C12.7812 20.375 12.75 20.1875 12.75 20C12.75 19.5938 12.8906 19.2344 13.1719 18.9219L15.2812 16.8594L10.5 12.0781L5.71875 16.8594L7.82812 18.9219C8.29688 19.3906 8.39062 19.9375 8.10938 20.5625C7.85938 21.1875 7.40625 21.5 6.75 21.5H1.5C1.09375 21.5 0.734375 21.3438 0.421875 21.0312C0.140625 20.75 0 20.4062 0 20V14.75C0 14.0938 0.3125 13.625 0.9375 13.3438C1.125 13.2812 1.3125 13.25 1.5 13.25C1.90625 13.25 2.26562 13.3906 2.57812 13.6719L4.64062 15.7812L9.42188 11L4.64062 6.21875L2.57812 8.32812C2.10938 8.79688 1.5625 8.90625 0.9375 8.65625C0.3125 8.375 0 7.90625 0 7.25V2C0 1.59375 0.140625 1.25 0.421875 0.96875C0.734375 0.65625 1.09375 0.5 1.5 0.5H6.75C7.40625 0.5 7.875 0.8125 8.15625 1.4375C8.21875 1.625 8.25 1.8125 8.25 2C8.25 2.40625 8.10938 2.76562 7.82812 3.07812L5.71875 5.14062L10.5 9.92188L15.2812 5.14062L13.1719 3.07812C12.7031 2.60938 12.5938 2.0625 12.8438 1.4375C13.125 0.8125 13.5938 0.5 14.25 0.5H19.5C19.9062 0.5 20.25 0.65625 20.5312 0.96875C20.8438 1.25 21 1.59375 21 2V7.25C21 7.90625 20.6875 8.375 20.0625 8.65625C19.875 8.71875 19.6875 8.75 19.5 8.75C19.0938 8.75 18.7344 8.60938 18.4219 8.32812L16.3594 6.21875ZM1.5 7.25L6.75 2H1.5V7.25ZM6.75 20L1.5 14.75V20H6.75ZM19.5 14.75L14.25 20H19.5V14.75ZM14.25 2L19.5 7.25V2H14.25Z" fill="black"/>
</svg>
