<!-- Generated by IcoMoon.io -->
<svg version="1.1" xmlns="http://www.w3.org/2000/svg" width="39" height="32" viewBox="0 0 39 32">
<title>eye</title>
<path fill="#514633" d="M12.961 10.079c1.667-1.667 3.662-2.5 5.987-2.5s4.298 0.833 5.921 2.5c1.667 1.623 2.5 3.596 2.5 5.921 0 1.535-0.373 2.96-1.118 4.276-0.746 1.272-1.776 2.281-3.092 3.026-1.272 0.746-2.675 1.118-4.211 1.118-2.325 0-4.32-0.811-5.987-2.434-1.623-1.667-2.434-3.662-2.434-5.987s0.811-4.298 2.434-5.921zM18.947 22.316c1.14 0 2.193-0.285 3.158-0.855s1.732-1.338 2.303-2.303c0.57-0.965 0.855-2.018 0.855-3.158 0-1.754-0.614-3.246-1.842-4.474s-2.719-1.842-4.474-1.842-3.246 0.614-4.474 1.842c-1.228 1.228-1.842 2.719-1.842 4.474s0.614 3.246 1.842 4.474c1.228 1.228 2.719 1.842 4.474 1.842zM37.697 14.882c0.132 0.351 0.197 0.724 0.197 1.118s-0.066 0.768-0.197 1.118c-1.842 4.123-4.43 7.434-7.763 9.934-3.333 2.456-6.996 3.684-10.987 3.684s-7.654-1.228-10.987-3.684c-3.333-2.5-5.921-5.811-7.763-9.934-0.132-0.351-0.197-0.724-0.197-1.118s0.066-0.768 0.197-1.118c1.842-4.123 4.43-7.412 7.763-9.868 3.333-2.5 6.996-3.75 10.987-3.75s7.654 1.25 10.987 3.75c3.333 2.456 5.921 5.746 7.763 9.868zM35.724 16.263c0.044-0.088 0.066-0.175 0.066-0.263s-0.022-0.197-0.066-0.329c-1.667-3.772-4.013-6.754-7.040-8.947-2.982-2.237-6.228-3.355-9.737-3.355s-6.776 1.118-9.803 3.355c-2.982 2.193-5.307 5.197-6.974 9.013-0.044 0.088-0.066 0.175-0.066 0.263s0.022 0.197 0.066 0.329c1.667 3.772 3.991 6.776 6.974 9.013 3.026 2.193 6.294 3.289 9.803 3.289s6.754-1.096 9.737-3.289c3.026-2.237 5.373-5.263 7.040-9.079z"></path>
</svg>
