<!-- Generated by IcoMoon.io -->
<svg version="1.1" xmlns="http://www.w3.org/2000/svg" width="35" height="32" viewBox="0 0 35 32">
<title>heart-1</title>
<path fill="#514633" d="M30.461 3.302c2.061 1.754 3.158 3.991 3.289 6.711s-0.746 5.022-2.632 6.908l-12.697 13.158c-0.439 0.439-0.943 0.658-1.513 0.658s-1.075-0.219-1.513-0.658l-12.697-13.158c-1.886-1.886-2.763-4.189-2.632-6.908s1.228-4.956 3.289-6.711c1.316-1.14 2.785-1.798 4.408-1.974s3.092 0.022 4.408 0.592c1.36 0.526 2.5 1.272 3.421 2.237l1.316 1.382 1.316-1.382c1.667-1.711 3.662-2.654 5.987-2.829 2.368-0.219 4.452 0.439 6.25 1.974zM29.605 15.474c1.36-1.403 2.039-3.114 2.039-5.132s-0.833-3.838-2.5-5.46c-0.877-0.702-1.82-1.162-2.829-1.382-0.965-0.219-1.864-0.197-2.697 0.066-0.833 0.219-1.601 0.526-2.303 0.921-0.658 0.351-1.184 0.746-1.579 1.184l-2.829 2.895-2.829-2.895c-0.614-0.658-1.382-1.206-2.303-1.645-0.921-0.482-2.061-0.702-3.421-0.658-1.316 0.044-2.522 0.548-3.618 1.513-1.711 1.623-2.566 3.465-2.566 5.526 0 2.018 0.68 3.706 2.039 5.066l12.697 13.158 12.697-13.158z"></path>
</svg>
