<!-- Generated by IcoMoon.io -->
<svg version="1.1" xmlns="http://www.w3.org/2000/svg" width="32" height="32" viewBox="0 0 32 32">
<title>herbal</title>
<path d="M31.248 0.628c-0.844-0.806-2.172-0.806-3.016 0l-4.866 4.868-0.463-0.462c-0.625-0.624-1.638-0.624-2.262 0l-2.056 2.056c-0.416 0.416-0.416 1.092 0 1.508l0.44 0.441-3.405 3.406c-0.135-0.184-0.272-0.359-0.412-0.533 0.304-0.94 0.14-1.968-0.441-2.767 0.773-0.251 1.42-0.792 1.803-1.509 0.376-0.772 0.424-1.664 0.132-2.472-0.221-0.808-0.765-1.49-1.504-1.885s-1.607-0.469-2.403-0.205c0.006-0.838-0.332-1.641-0.936-2.222s-1.42-0.888-2.257-0.848c-0.837-0.039-1.653 0.267-2.257 0.848s-0.943 1.384-0.937 2.222c-0.774-0.25-1.615-0.19-2.346 0.167-0.757 0.403-1.32 1.096-1.559 1.92-0.292 0.808-0.245 1.7 0.132 2.473 0.384 0.717 1.030 1.258 1.804 1.509-0.499 0.674-0.699 1.524-0.552 2.35s0.627 1.555 1.328 2.016c0.559 0.423 1.239 0.657 1.939 0.668 0.971-0.017 1.877-0.488 2.448-1.274 0.571 0.786 1.478 1.259 2.449 1.276 0.701-0.011 1.38-0.245 1.94-0.668 0.24-0.174 0.458-0.377 0.649-0.604 0.073 0.098 0.144 0.2 0.213 0.301l-3.42 3.421c-0.31 0.32-0.527 0.719-0.628 1.153-2.133-0.769-4.376-1.186-6.643-1.234-0.803-0.298-3.093-1.314-3.093-3.21 0-0.294-0.239-0.533-0.533-0.533s-0.533 0.239-0.533 0.533c0 1.353 0.833 2.591 2.293 3.49-1.083 0.452-1.89 1.387-2.178 2.525s-0.024 2.345 0.714 3.258c-0.681 0.378-0.99 1.192-0.732 1.926s1.009 1.176 1.776 1.044c0.768-0.132 1.328-0.798 1.326-1.577 0-0.015-0.004-0.029-0.004-0.043 0.178 0.027 0.357 0.042 0.538 0.043 0.182-0.003 0.363-0.026 0.54-0.068 0 0.023-0.007 0.045-0.007 0.068-0.004 0.817 0.609 1.505 1.42 1.597s1.562-0.443 1.741-1.24c0.179-0.797-0.272-1.601-1.045-1.864 0.033-0.16-0.011-0.326-0.119-0.448-0.197-0.219-0.533-0.238-0.753-0.041-0.47 0.502-1.097 0.83-1.777 0.931-1.473 0-2.666-1.194-2.666-2.666s1.194-2.666 2.666-2.666c2.33 0.004 4.641 0.419 6.826 1.227-0.058 0.22-0.17 0.421-0.325 0.587-0.431 0.386-0.8 0.835-1.094 1.333-0.341 0.599-0.216 1.355 0.3 1.813 0.276 0.302 0.663 0.478 1.072 0.488 0.257-0.004 0.51-0.069 0.737-0.189 0.499-0.296 0.95-0.666 1.337-1.099 0.319-0.259 0.71-0.417 1.12-0.452 0.3-0.052 0.595-0.131 0.881-0.236 2.338 1.854 3.893 4.519 4.36 7.466-0.778-0.803-1.831-1.282-2.947-1.339-0.582-0.061-1.161 0.144-1.575 0.558s-0.619 0.993-0.558 1.575c0 0.295 0.239 0.533 0.533 0.533s0.533-0.239 0.533-0.533c0-0.767 0.299-1.067 1.067-1.067 1.288 0 3.2 1.344 3.2 3.2 0.003 0.031 0.010 0.062 0.019 0.091 0.003 0.036 0.010 0.072 0.021 0.107 0.036 0.057 0.073 0.114 0.111 0.17 0.054 0.041 0.11 0.080 0.167 0.117 0.036 0.012 0.073 0.021 0.11 0.026 0.029 0.010 0.059 0.017 0.089 0.021h0.017c0.099 0.007 0.197-0.024 0.273-0.086 0.035-0.019 0.069-0.041 0.099-0.067 0.020-0.023 0.038-0.048 0.053-0.074 0.024-0.029 0.045-0.060 0.063-0.093 0.009-0.028 0.015-0.056 0.020-0.085 0.012-0.035 0.020-0.072 0.024-0.109 0-0.014 0-0.049 0-0.093 0.019-1.537 0.416-3.047 1.156-4.394 0.712 0.538 1.595 0.8 2.485 0.737 0.924 0.019 1.813-0.352 2.448-1.022 0.286-0.348 0.707-0.558 1.157-0.578 1.044-0.005 2.074 0.232 3.011 0.693 0.243 0.126 0.527 0.146 0.785 0.055s0.467-0.285 0.577-0.535c0.020-0.034 0.036-0.070 0.047-0.107 0.078-0.218 0.082-0.456 0.010-0.676-0.831-2.493-3.924-4.764-6.49-4.764-1.258 0.006-2.46 0.519-3.335 1.422s-1.351 2.12-1.318 3.378c0.003 0.105 0.015 0.211 0.036 0.314-0.274 0.409-0.512 0.841-0.711 1.291-0.227-3.239-0.852-6.439-1.861-9.525l4.702-4.703 0.442 0.441c0.417 0.415 1.091 0.415 1.508 0l2.055-2.057c0.625-0.625 0.625-1.637 0-2.262l-0.462-0.463 4.866-4.865c0.833-0.833 0.833-2.183 0-3.016l-0.128-0.127zM11.115 8.972c-0.012 0.012-0.027 0.022-0.039 0.034-0.081 0.078-0.167 0.149-0.259 0.213-0.031 0.021-0.064 0.039-0.096 0.059-0.066 0.041-0.135 0.079-0.206 0.112-0.067 0.031-0.136 0.059-0.206 0.083-0.023 0.008-0.046 0.014-0.070 0.021-0.204 0.060-0.415 0.091-0.627 0.091-0.003-0-0.006-0-0.009 0h-0.015c-0.084 0.001-0.168-0.002-0.252-0.010-0.010 0-0.020 0-0.029-0.003-0.093-0.013-0.184-0.033-0.275-0.058-0.045-0.013-0.091-0.026-0.135-0.042-0.064-0.022-0.127-0.046-0.189-0.073-0.073-0.035-0.144-0.073-0.213-0.115-0.036-0.022-0.073-0.041-0.107-0.065-0.173-0.115-0.325-0.259-0.448-0.426-0.017-0.021-0.035-0.041-0.053-0.063-0.13-0.184-0.23-0.387-0.298-0.602l-0.002-0.007c-0.083-0.254-0.117-0.521-0.101-0.787 0.003-0.077 0.011-0.153 0.023-0.229 0.009-0.050 0.022-0.099 0.035-0.148 0.020-0.079 0.044-0.157 0.073-0.234 0.018-0.046 0.036-0.092 0.057-0.136 0.027-0.058 0.059-0.112 0.091-0.167 0.152-0.255 0.354-0.477 0.595-0.651l0.010-0.008c0.738-0.54 1.742-0.538 2.478 0.006l0.010 0.006c0.147 0.106 0.28 0.231 0.396 0.37 0.023 0.029 0.050 0.056 0.072 0.087 0.038 0.053 0.070 0.107 0.104 0.16 0.037 0.061 0.072 0.124 0.102 0.188 0.022 0.046 0.042 0.094 0.060 0.142 0.030 0.078 0.054 0.157 0.074 0.239 0.011 0.046 0.025 0.091 0.033 0.137 0.012 0.064 0.014 0.131 0.020 0.198 0.021 0.282-0.013 0.566-0.101 0.835v0.010c-0.095 0.315-0.266 0.602-0.498 0.837l-0.001-0.001zM15.688 5.491c0.201 0.539 0.177 1.137-0.068 1.658-0.277 0.504-0.746 0.876-1.301 1.030-0.122 0.039-0.247 0.070-0.373 0.092-0.025-0.019-0.050-0.033-0.075-0.053l-0.028-0.019c-0.096-0.067-0.196-0.128-0.3-0.184-0.238-0.129-0.492-0.225-0.756-0.284 0.007-0.087 0.013-0.176 0.013-0.267-0.001-0.227-0.025-0.452-0.072-0.674-0.007-0.033-0.017-0.065-0.025-0.097-0.016-0.067-0.033-0.133-0.053-0.199 0-0.006-0.003-0.013-0.005-0.019-0.006-0.020-0.017-0.039-0.023-0.058-0.033-0.096-0.070-0.189-0.112-0.28-0.015-0.034-0.032-0.068-0.049-0.102-0.048-0.097-0.102-0.191-0.16-0.283-0.008-0.012-0.014-0.024-0.022-0.036-0.151-0.229-0.33-0.438-0.533-0.622 0.009-0.015 0.017-0.031 0.026-0.046 0.046-0.077 0.097-0.151 0.154-0.22 0.018-0.022 0.033-0.044 0.053-0.065 0.079-0.088 0.165-0.17 0.258-0.243 0.020-0.016 0.042-0.028 0.063-0.043 0.214-0.156 0.452-0.277 0.704-0.358 0.537-0.216 1.141-0.189 1.656 0.074s0.891 0.737 1.030 1.299zM9.602 1.070c0.577-0.040 1.144 0.171 1.553 0.581s0.621 0.975 0.581 1.553c0 0.127-0.009 0.255-0.027 0.381l-0.022 0.017c-0.059 0.042-0.114 0.087-0.17 0.132-0.036 0.030-0.072 0.059-0.107 0.090-0.049 0.044-0.095 0.090-0.141 0.136-0.036 0.038-0.072 0.076-0.107 0.115s-0.077 0.090-0.114 0.137c-0.036 0.047-0.070 0.095-0.103 0.144s-0.060 0.087-0.087 0.133c-0.007 0.011-0.014 0.021-0.021 0.032-0.341-0.142-0.704-0.224-1.074-0.241h-0.003c-0.053-0.003-0.107-0.009-0.16-0.009-0.559-0.001-1.109 0.146-1.593 0.427l-0.037-0.041c-0.057-0.066-0.109-0.135-0.157-0.208-0.017-0.026-0.035-0.049-0.050-0.075-0.060-0.102-0.11-0.209-0.151-0.32-0.009-0.023-0.014-0.049-0.022-0.072-0.082-0.251-0.124-0.513-0.123-0.777-0.040-0.577 0.172-1.143 0.581-1.553s0.975-0.621 1.552-0.581zM3.585 7.149c-0.245-0.521-0.269-1.119-0.068-1.658 0.217-0.877 1.002-1.495 1.906-1.5 0.266 0.002 0.53 0.046 0.782 0.131 0.121 0.039 0.239 0.087 0.353 0.142 0 0.005 0.004 0.009 0.006 0.014 0.061 0.193 0.14 0.38 0.237 0.557l0.034 0.060c0.096 0.167 0.208 0.324 0.335 0.469 0.004 0.005 0.007 0.012 0.012 0.018-0.194 0.224-0.355 0.474-0.48 0.742-0.012 0.025-0.025 0.049-0.036 0.074-0.024 0.057-0.045 0.116-0.067 0.175-0.013 0.036-0.029 0.070-0.041 0.107 0 0.005 0 0.011-0.004 0.016-0.039 0.121-0.070 0.245-0.094 0.37-0.004 0.024-0.007 0.049-0.011 0.073-0.018 0.109-0.031 0.218-0.037 0.328l-0.003 0.061c0 0.047-0.007 0.093-0.007 0.14 0 0.222 0.023 0.444 0.069 0.661l-0.044 0.020c-0.085 0.037-0.172 0.067-0.261 0.090-0.023 0.006-0.045 0.014-0.068 0.019-0.118 0.026-0.238 0.041-0.359 0.046-0.020 0-0.042 0-0.063 0-0.269 0.001-0.536-0.041-0.791-0.125-0.555-0.155-1.024-0.527-1.301-1.032zM5.841 12.646c-0.48-0.319-0.811-0.816-0.919-1.382-0.072-0.572 0.089-1.149 0.448-1.6 0.074-0.103 0.156-0.2 0.245-0.292h0.017c0.012 0 0.025 0.003 0.037 0.003 0.031 0 0.060-0.006 0.091-0.007 0.104-0.002 0.208-0.010 0.311-0.023 0.041-0.005 0.082-0.011 0.122-0.018 0.131-0.022 0.26-0.053 0.386-0.092 0.027-0.009 0.053-0.021 0.080-0.031 0.072-0.025 0.144-0.050 0.213-0.081 0.106 0.175 0.229 0.339 0.367 0.491 0.010 0.012 0.020 0.023 0.031 0.034 0.127 0.136 0.267 0.261 0.415 0.373 0.013 0.010 0.023 0.023 0.037 0.034s0.032 0.019 0.047 0.029c0.095 0.068 0.194 0.13 0.296 0.187l0.014 0.008c0.117 0.063 0.238 0.118 0.363 0.166l0.033 0.012c0.254 0.097 0.519 0.161 0.789 0.191 0 0.017 0.004 0.034 0.006 0.051 0.008 0.086 0.009 0.173 0.004 0.26 0 0.031 0 0.062-0.004 0.093-0.012 0.116-0.033 0.23-0.065 0.342-0.008 0.028-0.020 0.053-0.028 0.082-0.082 0.249-0.202 0.482-0.356 0.693-0.306 0.491-0.81 0.825-1.382 0.916s-1.154-0.070-1.598-0.441v-0.001zM13.364 12.646c-0.443 0.372-1.026 0.533-1.597 0.443s-1.076-0.425-1.382-0.915c-0.075-0.102-0.143-0.209-0.202-0.32 0.003-0.009 0.005-0.019 0.008-0.028 0.023-0.071 0.042-0.141 0.060-0.213 0.010-0.041 0.022-0.083 0.030-0.125 0.015-0.069 0.027-0.138 0.036-0.207 0.006-0.045 0.012-0.090 0.016-0.136 0.007-0.065 0.011-0.131 0.013-0.196 0-0.053 0-0.104 0-0.155s0-0.118-0.008-0.178c0-0.011 0-0.023 0-0.035 0.205-0.048 0.404-0.116 0.595-0.204 0.010-0.004 0.019-0.009 0.028-0.013 0.075-0.035 0.149-0.072 0.221-0.113 0.044-0.024 0.086-0.053 0.128-0.078s0.081-0.051 0.12-0.078c0.019-0.013 0.039-0.023 0.057-0.037s0.043-0.037 0.066-0.053c0.065-0.050 0.127-0.101 0.187-0.156 0.033-0.030 0.067-0.058 0.098-0.089 0.089-0.086 0.172-0.177 0.25-0.273l0.008-0.010c0.171-0.215 0.315-0.45 0.426-0.701 0.017 0.003 0.034 0.006 0.050 0.010 0.087 0.020 0.173 0.046 0.257 0.079 0.026 0.010 0.053 0.018 0.079 0.029 0.108 0.047 0.212 0.104 0.31 0.17 0.021 0.014 0.042 0.032 0.063 0.047 0.214 0.155 0.402 0.343 0.557 0.558 0.371 0.443 0.532 1.025 0.442 1.596s-0.423 1.075-0.913 1.381zM5.87 24.534c-0.295 0-0.533-0.239-0.533-0.533s0.239-0.533 0.533-0.533c0.294 0 0.533 0.239 0.533 0.533s-0.239 0.533-0.533 0.533zM1.603 24.534c-0.294 0-0.533-0.239-0.533-0.533s0.239-0.533 0.533-0.533c0.295 0 0.533 0.239 0.533 0.533s-0.239 0.533-0.533 0.533zM25.646 25.917c-0.441 0.492-1.076 0.766-1.736 0.75-0.569 0.025-1.135-0.099-1.641-0.36 0.613-0.717 1.776-1.773 3.333-1.773 2.569 0 3.923 0.506 4.64 1.013-0.872-0.319-1.795-0.482-2.723-0.48-0.714 0.013-1.391 0.321-1.871 0.85zM25.455 21.868c1.466 0 3.24 0.989 4.405 2.276-1.363-0.499-2.809-0.728-4.259-0.676-1.41 0.048-2.744 0.653-3.71 1.681 0.146-1.858 1.7-3.289 3.564-3.281zM18.75 24.512c-0.79-1.566-1.895-2.952-3.247-4.071l1.92-1.92c0.613 1.955 1.057 3.959 1.327 5.99zM14.623 19.814c-0.319 0.259-0.71 0.417-1.12 0.452-0.62 0.068-1.203 0.329-1.668 0.746-0.31 0.345-0.667 0.646-1.060 0.893-0.194 0.091-0.424 0.051-0.576-0.101s-0.192-0.382-0.101-0.576c0.248-0.392 0.55-0.748 0.895-1.057 0.416-0.464 0.676-1.047 0.744-1.667 0.035-0.41 0.192-0.8 0.452-1.12l7.59-7.593 2.433 2.434-7.59 7.59zM24.161 12.664l-0.816-0.817-4.006-4.005 0.839-0.839 4.823 4.823-0.84 0.838zM26.217 10.609l-0.462 0.462-4.822-4.823 0.462-0.462c0.208-0.208 0.546-0.208 0.754 0l4.069 4.070c0.207 0.208 0.207 0.545 0 0.753h-0.001zM30.621 3.018l-4.866 4.866-1.636-1.636 4.866-4.866c0.422-0.403 1.086-0.403 1.508 0l0.127 0.127c0.416 0.416 0.416 1.092 0 1.508z"></path>
<path d="M10.136 32c1.178 0 2.133-0.955 2.133-2.133-0.090-0.72-0.407-1.393-0.907-1.92-0.34-0.358-0.579-0.799-0.693-1.28 0-0.294-0.239-0.533-0.533-0.533s-0.533 0.239-0.533 0.533c-0.114 0.48-0.353 0.922-0.693 1.28-0.499 0.527-0.817 1.2-0.907 1.92 0 1.178 0.955 2.133 2.133 2.133zM9.762 28.587c0.127-0.169 0.255-0.34 0.373-0.514 0.118 0.174 0.246 0.345 0.373 0.514 0.34 0.358 0.579 0.799 0.693 1.28 0 0.589-0.477 1.067-1.067 1.067s-1.067-0.477-1.067-1.067c0.114-0.48 0.353-0.922 0.693-1.28z"></path>
</svg>
