<!-- Generated by IcoMoon.io -->
<svg version="1.1" xmlns="http://www.w3.org/2000/svg" width="38" height="32" viewBox="0 0 38 32">
<title>honest</title>
<path fill="#514633" d="M38.054 20.454c-0-1.562-0.753-2.947-2.035-3.785 0.317-1.5-0.13-3.014-1.237-4.121s-2.62-1.554-4.121-1.237c-0.587-0.899-1.444-1.537-2.442-1.838-0.087-0.94-0.272-1.871-0.552-2.774-0.133-0.428-0.062-0.884 0.193-1.252 0.894-1.286 0.738-3.023-0.369-4.13s-2.845-1.262-4.132-0.368c-0.368 0.256-0.824 0.326-1.252 0.194-2.806-0.871-5.755-0.815-8.527 0.162l0.371 1.054c1.322-0.466 2.687-0.703 4.055-0.712-2.019 0.721-3.852 2.004-5.104 3.221 0 0-8.435 8.435-8.509 8.509-1.493 1.465-2.553 3.192-3.264 5.369 0.138-3.518 1.596-6.885 4.107-9.396l4.055-4.055c1.042-1.042 2.248-1.883 3.585-2.5l-0.468-1.015c-1.457 0.672-2.771 1.589-3.907 2.724l-4.055 4.055c-3.049 3.049-4.661 7.267-4.423 11.572l0.566 8.085c0 0 8.698 0.619 8.975 0.619 2.919 0 5.792-0.847 8.244-2.43 0.208 0.719 0.6 1.389 1.164 1.953 1.107 1.107 2.62 1.553 4.121 1.237 0.838 1.282 2.223 2.035 3.785 2.035s2.947-0.753 3.785-2.035c0.829 0.174 1.672 0.116 2.463-0.174l-0.385-1.049c-0.838 0.329-1.777 0.22-2.623-0.095-1.242 2.979-5.24 2.978-6.48 0-2.986 1.234-5.818-1.6-4.584-4.584-2.979-1.242-2.978-5.239 0-6.48-0.535-1.338-0.348-2.848 0.709-3.875 1.027-1.057 2.537-1.244 3.875-0.709 1.242-2.979 5.24-2.978 6.48 0 2.986-1.234 5.818 1.6 4.584 4.584 2.979 1.242 2.978 5.239 0 6.48 0.319 0.856 0.425 1.807 0.083 2.654l1.045 0.395c0.303-0.803 0.367-1.66 0.19-2.504 1.282-0.838 2.035-2.223 2.035-3.785zM23.092 11.311c-1.5-0.317-3.014 0.13-4.121 1.237s-1.554 2.62-1.237 4.121c-1.282 0.838-2.034 2.223-2.034 3.785s0.753 2.947 2.034 3.785c-0.066 0.313-0.098 0.627-0.099 0.937-2.572 1.8-5.699 2.694-8.838 2.522l-6.436-0.46 5.25-5.25-0.79-0.791-5.236 5.236-0.225-3.443c-0.155-2.586 1.681-6.72 3.821-8.819l8.502-8.502c1.87-1.817 5.123-3.804 8.157-3.443 0.741 0.21 1.525 0.081 2.161-0.361 0.683-0.475 1.56-0.497 2.254-0.101l-18.61 18.61 0.79 0.79 18.61-18.61c0.396 0.694 0.374 1.571-0.101 2.254-0.453 0.653-0.579 1.462-0.343 2.221 0.228 0.734 0.386 1.489 0.475 2.251-1.822-0.083-3.146 0.748-3.983 2.030z"></path>
<path fill="#514633" d="M33.627 27.887l0.674 0.892c0.344-0.26 0.65-0.567 0.909-0.912l-0.894-0.671c-0.197 0.262-0.429 0.494-0.689 0.692z"></path>
<path fill="#514633" d="M33.616 19.481l-0.715-2.201c-0.169-0.521-0.571-0.92-1.104-1.095-0.557-0.184-1.178-0.088-1.66 0.256 0 0-0.674 0.484-0.722 0.523 0.021-0.059 0.272-0.849 0.272-0.849 0.178-0.565 0.077-1.185-0.27-1.658-0.331-0.452-0.835-0.711-1.383-0.711h-2.314c-0.547 0-1.051 0.259-1.383 0.711-0.347 0.473-0.448 1.093-0.27 1.658 0 0 0.252 0.791 0.274 0.848-0.049-0.038-0.724-0.521-0.724-0.521-0.483-0.344-1.103-0.44-1.66-0.256-0.532 0.175-0.934 0.575-1.104 1.095l-0.715 2.201c-0.169 0.521-0.078 1.080 0.249 1.535 0.343 0.476 0.901 0.764 1.494 0.769 0 0 0.83 0.004 0.891 0.002-0.052 0.035-0.719 0.527-0.719 0.527-0.476 0.353-0.759 0.913-0.757 1.5 0.002 0.56 0.258 1.066 0.701 1.388l1.872 1.36c0.294 0.213 0.639 0.323 0.994 0.323 0.773 0.005 1.495-0.53 1.735-1.269 0 0 0.261-0.788 0.277-0.848 0.017 0.060 0.279 0.847 0.279 0.847 0.339 1.108 1.785 1.663 2.729 0.945l1.872-1.36c0.443-0.322 0.698-0.828 0.701-1.388 0.002-0.587-0.28-1.148-0.757-1.5 0 0-0.669-0.492-0.721-0.526 0.050 0.002 0.892-0.003 0.892-0.003 0.593-0.005 1.151-0.293 1.494-0.769 0.327-0.455 0.418-1.014 0.249-1.535zM25.238 15.116c0.070-0.095 0.225-0.254 0.481-0.254h2.314c0.523 0.043 0.695 0.499 0.586 0.916l-0.212 0.671c-0.213 0.675-0.635 1.263-1.19 1.657-0.182 0.116-0.348 0.138-0.537 0.071-0.544-0.191-1.108-1.033-1.339-1.736l-0.003 0.001c-0.045-0.21-0.427-1.003-0.102-1.327zM22.588 20.667c-0.008-0-0.697 0-0.697 0-0.43-0.025-0.811-0.33-0.69-0.841l0.715-2.201c0.202-0.485 0.691-0.506 1.052-0.275l0.573 0.409c0.576 0.411 1.005 0.994 1.209 1.644 0.054 0.209 0.012 0.366-0.098 0.532-0.436 0.659-2.065 0.731-2.065 0.731zM25.765 24.603c-0.1 0.22-0.243 1.058-0.7 1.133-0.112 0.036-0.331 0.074-0.539-0.077l-1.872-1.36c-0.399-0.342-0.269-0.812 0.064-1.085l0.566-0.419c0.56-0.415 1.236-0.642 1.907-0.642 0.222 0.002 0.385 0.090 0.507 0.258 0.474 0.654 0.068 2.193 0.068 2.193zM31.34 23.809c-0.001 0.118-0.032 0.338-0.24 0.489l-1.873 1.36c-0.448 0.273-0.855 0.005-1.013-0.396l-0.223-0.668c-0.225-0.671-0.229-1.395-0.012-2.040 0.079-0.201 0.201-0.316 0.392-0.373 0.553-0.165 1.458 0.234 2.104 0.617 0 0 0.892 0.515 0.864 1.011zM28.053 21.109c-0.578 0.167-1.006 0.617-1.171 1.21-0.236-0.781-0.941-1.332-1.777-1.284 0.669-0.466 0.975-1.306 0.671-2.087 0.65 0.492 1.545 0.524 2.192-0.007-0.267 0.77-0.021 1.63 0.684 2.082-0.208 0.002-0.41 0.028-0.599 0.085zM32.46 20.363c-0.249 0.413-0.929 0.289-1.33 0.311-0.697 0-1.376-0.219-1.915-0.62-0.166-0.138-0.239-0.289-0.234-0.488 0.014-0.576 0.64-1.373 1.237-1.81 0 0 0.808-0.712 1.229-0.509 0.112 0.037 0.311 0.135 0.391 0.379l0.715 2.201c0.079 0.244-0.024 0.441-0.093 0.536z"></path>
<path fill="#514633" d="M14.834 6.064l0.79-0.79 0.79 0.79-0.79 0.79-0.79-0.79z"></path>
<path fill="#514633" d="M13.254 7.646l0.79-0.79 0.79 0.79-0.79 0.79-0.79-0.79z"></path>
<path fill="#514633" d="M23.134 8.043l0.79-0.79 0.79 0.79-0.79 0.79-0.79-0.79z"></path>
</svg>
