<!-- Generated by IcoMoon.io -->
<svg version="1.1" xmlns="http://www.w3.org/2000/svg" width="57" height="32" viewBox="0 0 57 32">
<title>leaf-2</title>
<path d="M20.31 31.007c-0.822-0.766-1.499-1.724-2.079-2.73-1.016-1.724-1.838-3.592-2.756-5.364-0.097-0.239-0.29-0.479-0.532-0.575-1.354-0.671-2.66-1.341-4.062-1.916-0.774-0.335-1.596-0.431-2.418-0.575-0.145-0.048-0.387 0.096-0.532 0.192-2.224 1.149-4.11 2.73-5.899 4.454-0.435 0.431-0.919 0.91-1.354 1.341-0.145 0.144-0.339 0.239-0.484 0.383-0.048-0.048-0.145-0.096-0.193-0.096 0.097-0.287 0.193-0.623 0.339-0.91 0.919-1.772 2.418-2.97 3.917-4.167 0.387-0.287 0.725-0.623 1.161-0.814 0.725-0.335 1.016-0.958 1.161-1.724 0.193-0.91 0.532-1.772 0.677-2.682 0.048-0.431-0.097-0.91-0.29-1.341-0.725-1.629-1.547-3.209-2.321-4.79-0.048-0.096-0.097-0.192-0.145-0.335-0.29-0.718-0.145-1.485 0.338-1.868 0.435-0.335 1.209-0.383 1.838 0.144 1.015 0.814 1.838 1.724 2.079 3.065 0.145 0.814 0.29 1.676 0.435 2.586 0.677-0.623 1.257-1.245 1.886-1.772 1.838-1.628 4.014-2.538 6.528-2.491 0.484 0 0.967 0.144 1.451 0.383 0.919 0.431 1.064 1.197 0.387 1.916-1.306 1.437-2.95 2.251-4.932 2.107-1.112-0.048-2.273-0.096-3.385-0.144-0.435 0-0.677 0.096-0.967 0.431-1.161 1.437-2.321 2.826-2.515 4.79 0 0.096-0.048 0.192-0.048 0.383 0.919-0.383 1.741-0.814 2.611-1.102 2.176-0.671 4.352-1.245 6.528-1.868 0.339-0.096 0.725-0.287 0.967-0.527 1.596-1.581 3.143-3.161 4.691-4.694 0.387-0.335 0.387-0.671 0.242-1.149-0.532-1.676-1.064-3.401-1.547-5.125-0.29-1.006-0.29-2.060 0.048-3.065 0.193-0.718 0.532-1.245 1.354-1.341s1.499 0.192 1.886 0.91c0.774 1.389 1.306 2.826 1.306 4.406 0 0.718-0.097 1.485-0.193 2.395 0.484-0.527 0.967-0.91 1.306-1.389 1.451-1.964 3.433-2.97 5.851-3.161 1.257-0.096 2.031 0.287 2.369 1.149 0.242 0.623 0.194 1.245-0.193 1.82-0.87 1.389-2.273 1.868-3.772 2.203-1.789 0.383-3.578 0.671-5.368 1.054-0.29 0.048-0.629 0.192-0.822 0.383-1.886 1.868-3.772 3.784-5.658 5.747 0.193 0 0.339 0 0.532 0 2.563-0.048 5.077-0.096 7.64-0.192 0.242 0 0.58-0.192 0.677-0.383 0.677-1.15 1.306-2.299 1.934-3.496s1.402-2.203 2.756-2.634c0.967-0.335 1.693-0.192 2.224 0.479 0.532 0.623 0.532 1.293 0 2.155-1.064 1.724-2.563 3.017-4.449 3.832-0.242 0.096-0.435 0.192-0.822 0.335 0.629 0.144 1.112 0.287 1.547 0.431 0.822 0.239 1.596 0.527 2.418 0.766 0.145 0.048 0.387 0.096 0.484 0.048 0.822-0.479 1.596-1.006 2.37-1.485 0-1.102-0.145-2.395 0-3.592 0.097-1.054 0.435-2.107 0.87-3.113 0.532-1.341 1.789-1.82 3.143-1.868 0.387 0 0.919 0.335 1.209 0.623 0.774 0.91 1.016 2.012 0.725 3.209-0.339 1.245-0.967 2.299-1.789 3.257-0.242 0.287-0.484 0.527-0.725 0.814 0 0.048 0.048 0.144 0.048 0.192 0.87-0.096 1.741-0.144 2.563-0.239 0.097 0 0.194-0.096 0.242-0.192 1.161-1.533 2.805-2.251 4.691-2.491 1.306-0.144 2.611-0.239 3.917-0.239 0.532 0 1.112 0.239 1.596 0.479 1.161 0.671 1.402 2.107 0.339 2.922-0.725 0.575-1.644 0.958-2.563 1.15-1.934 0.383-3.917 0.431-5.9 0.048-0.29-0.048-0.629-0.096-0.919-0.239-0.87-0.479-1.741-0.479-2.66-0.287-1.741 0.383-3.482 0.718-5.222 1.054-0.339 0.048-0.629 0.239-1.064 0.431 1.547 0.671 2.95 1.293 4.352 1.868 1.112 0.479 2.321 0.862 3.433 1.293 0.629 0.239 1.209 0.144 1.838-0.096 1.306-0.527 2.611-1.102 3.965-1.485 2.66-0.671 5.126 0.048 7.35 1.533 0.725 0.479 1.161 1.245 0.967 2.155s-0.87 1.437-1.693 1.676c-1.112 0.335-2.224 0.479-3.385 0.192-1.547-0.431-3.095-0.958-4.594-1.437-1.257-0.383-2.466-0.814-3.772-1.149 1.209 1.389 1.886 2.97 2.321 4.694 0.097 0.431 0.194 0.91 0.194 1.341-0.048 1.389-1.354 2.155-2.466 1.389-0.725-0.479-1.499-1.197-1.838-2.012-0.532-1.245-0.822-2.682-1.112-4.023-0.193-0.91-0.193-1.82-0.29-2.778-4.4-1.676-8.656-3.88-13.491-4.215-0.048 0.096-0.145 0.144-0.193 0.239 0.822 0.623 1.692 1.197 2.515 1.82 0.097 0.096 0.242 0.096 0.387 0.144 2.515 0.239 4.449 1.533 6.093 3.401 0.87 1.006 1.161 2.155 0.919 3.496-0.29 1.724-2.079 2.443-3.385 1.245-0.822-0.766-1.499-1.724-2.079-2.634-0.629-1.006-1.112-2.107-1.741-3.305 0.145 1.724 0.339 3.257 0.435 4.837 0.048 1.054-0.484 1.964-1.112 2.778-0.822 1.102-2.224 1.054-2.998-0.096-0.919-1.389-1.161-2.922-0.532-4.502 0.677-1.628 1.257-3.353 2.563-4.646 0.097-0.096 0.048-0.575-0.048-0.671-1.402-1.15-2.756-2.155-4.787-2.012-4.11 0.287-8.124 0.958-11.992 2.395-0.242 0.096-0.435 0.192-0.725 0.287 1.112 0.431 2.079 0.814 3.095 1.197 2.176-2.107 4.787-2.826 7.737-2.395 1.015 0.144 1.983 0.479 2.515 1.533 0.58 1.15 0.387 2.203-0.87 2.634-0.87 0.287-1.789 0.335-2.708 0.431-0.532 0.048-1.064-0.096-1.644-0.192-0.532-0.048-1.016-0.144-1.596-0.096 0.29 0.144 0.532 0.287 0.822 0.431 2.756 1.341 4.932 3.209 6.045 6.131 0.242 0.623 0.387 1.197 0.048 1.82-0.677 1.293-2.079 1.581-3.24 0.479zM28.482 20.757c-0.532 1.245-0.339 2.73-0.87 4.023-0.097 0-0.242-0.048-0.339-0.048 0.048-1.197 0.097-2.395 0.145-3.592-0.048 0-0.145-0.048-0.193-0.048-0.484 1.293-1.064 2.538-1.451 3.88-0.29 0.958 0.097 1.868 0.629 2.682 0.484 0.718 1.209 0.766 1.644 0.048 0.435-0.671 0.87-1.389 0.87-2.155 0.097-1.581-0.097-3.161-0.145-4.742-0.097-0.048-0.194-0.048-0.29-0.048zM30.706 19.751c0.967 1.102 1.934 2.107 2.805 3.113 0.193 0.192 0.242 0.479 0.338 0.718-0.097 0.048-0.193 0.096-0.29 0.192-0.919-1.006-1.838-1.964-2.756-2.97-0.097 0.048-0.145 0.144-0.242 0.192 0.774 1.245 1.499 2.538 2.321 3.784 0.193 0.335 0.532 0.623 0.822 0.862 0.774 0.623 1.451 0.335 1.644-0.623 0.145-0.91-0.048-1.724-0.629-2.491-0.967-1.245-2.418-2.060-4.014-2.778zM43.569 25.978c-0.58-1.197-1.161-2.395-1.789-3.544-0.097 0.048-0.145 0.048-0.242 0.096 0.048 1.485 0.338 2.922 1.015 4.215 0.29 0.623 0.822 1.102 1.306 1.581 0.145 0.144 0.58 0.239 0.725 0.144 0.193-0.144 0.338-0.527 0.29-0.718-0.29-1.102-0.677-2.251-1.064-3.353-0.145-0.431-0.484-0.814-0.725-1.197 0.193 0.91 0.919 1.676 0.484 2.778zM46.422 20.661c1.596 0.383 3.337 0.096 4.836 1.006-1.547-0.048-3.095-0.048-4.739-0.096 0.242 0.144 0.339 0.239 0.435 0.287 1.838 0.575 3.627 1.197 5.464 1.628 0.774 0.192 1.596-0.048 2.418-0.144 0.532-0.096 1.016-0.335 1.112-0.91 0.145-0.623-0.29-1.006-0.774-1.293-1.499-1.006-3.143-1.437-4.884-1.437-1.354-0.096-2.611 0.431-3.868 0.958zM37.718 14.626c0.58-1.389 1.209-2.778 1.789-4.119 0.097 0.048 0.193 0.096 0.29 0.144-0.339 1.245-0.677 2.443-1.064 3.784 1.209-1.245 2.273-2.491 2.66-4.119 0.193-0.814 0.048-1.533-0.484-2.155-0.145-0.192-0.435-0.383-0.58-0.335-0.87 0.096-1.644 0.383-2.079 1.197-0.58 1.102-0.774 2.251-0.822 3.448 0 0.718 0 1.437 0 2.155 0.145 0 0.242 0 0.29 0zM45.407 15.297c1.789-0.048 3.53 0 5.319-0.144 0.58-0.048 1.161-0.287 1.644-0.575 0.29-0.144 0.58-0.575 0.58-0.91 0-0.24-0.387-0.527-0.677-0.719-0.242-0.144-0.58-0.192-0.822-0.239-1.886-0.096-3.723 0.096-5.513 0.718-0.532 0.192-1.016 0.575-1.499 0.814 0 0.048 0.048 0.096 0.048 0.192 1.596-0.287 3.24-0.718 4.884-0.479 0 0.048 0 0.144 0.048 0.192-1.451 0.287-2.901 0.575-4.352 0.862 0 0.048 0 0.144 0 0.192 0.048 0.048 0.193 0.096 0.338 0.096zM29.788 14.099c0.919-0.958 1.789-1.916 2.708-2.826 0.048 0.048 0.145 0.096 0.194 0.144-0.484 0.766-0.967 1.581-1.547 2.443 1.451-0.814 2.418-1.964 3.143-3.305 0.29-0.527-0.242-1.149-0.87-0.958s-1.402 0.479-1.789 0.958c-0.822 1.054-1.402 2.299-2.079 3.449 0.097 0 0.193 0.048 0.242 0.096zM29.014 7.633c1.015-0.239 2.079-0.479 3.095-0.814 0.532-0.192 1.064-0.527 1.451-0.958 0.242-0.287 0.484-0.862 0.338-1.149s-0.725-0.479-1.112-0.479c-1.306 0-2.563 0.383-3.627 1.149-0.629 0.431-1.064 1.102-1.596 1.676 0.048 0.048 0.048 0.096 0.097 0.096 1.306-0.479 2.611-0.958 3.917-1.485 0.048 0.096 0.097 0.239 0.145 0.335-0.919 0.479-1.838 1.006-2.805 1.485 0.048 0.048 0.097 0.096 0.097 0.144zM23.453 9.022c0.097 0 0.145-0.048 0.242-0.048-0.145-1.628-0.29-3.257-0.435-4.885 0.097 0 0.193 0 0.338-0.048 0.193 1.197 0.387 2.347 0.629 3.592 0.919-1.581 0.387-5.364-0.87-6.562-0.484-0.479-1.064-0.335-1.306 0.287-0.339 0.958-0.29 1.916-0.048 2.874 0.387 1.437 0.87 2.874 1.306 4.311 0 0.192 0.097 0.335 0.145 0.479zM18.811 10.411c-1.016-1.245-5.368 0.096-6.722 1.437 1.499-0.239 2.853-0.958 4.4-0.862-0.484 0.287-0.967 0.479-1.451 0.671s-1.015 0.383-1.596 0.575c1.983 0.575 4.4-0.287 5.368-1.82zM7.157 13.141c0.048-0.048 0.097-0.048 0.145-0.096-0.29-1.054-0.58-2.107-0.919-3.161 0.097-0.048 0.193-0.096 0.338-0.144 0.435 1.006 0.87 2.060 1.354 3.065 0-0.862 0-1.724-0.339-2.395-0.387-0.814-1.064-1.437-1.692-2.155-0.097-0.096-0.484-0.144-0.58-0.048-0.145 0.096-0.193 0.431-0.145 0.623 0.629 1.485 1.257 2.874 1.838 4.311zM20.31 21.332c0.629 0 1.257-0.096 1.838-0.335 0.677-0.239 0.725-0.671 0.387-1.245-0.29-0.575-0.822-0.766-1.451-0.91-2.128-0.479-4.11 0.096-5.996 0.958-0.29 0.144-0.484 0.383-0.725 0.575 0.29 0.096 0.532 0.144 0.725 0.096 1.499-0.239 2.998-0.479 4.497-0.766 0.532-0.096 1.015-0.096 1.596 0.287-1.499 0.287-2.805 0.575-4.11 0.862 0 0.048 0 0.144 0 0.192 1.161 0.096 2.176 0.287 3.24 0.287zM22.292 30.384c0.387-0.192 0.629-0.671 0.387-1.102-0.58-1.102-1.161-2.203-1.838-3.209-0.338-0.479-0.967-0.814-1.451-1.197-0.048 0.048-0.048 0.048-0.097 0.096 0.58 0.958 1.209 1.916 1.838 2.922-0.097 0.048-0.193 0.096-0.29 0.144-1.015-1.102-1.692-2.491-3.143-3.257 0.677 1.389 1.354 2.778 2.128 4.119 0.338 0.575 0.919 1.054 1.451 1.437 0.242 0.239 0.725 0.192 1.016 0.048z"></path>
</svg>
