<!-- Generated by IcoMoon.io -->
<svg version="1.1" xmlns="http://www.w3.org/2000/svg" width="32" height="32" viewBox="0 0 32 32">
<title>leaf</title>
<path d="M31.912 2.458c-0.152-0.213-0.449-0.263-0.662-0.111-0.022 0.015-1.16 0.821-3.302 2.023-0.818-0.439-1.549-1.117-1.721-1.283 0.015-0.029 0.030-0.058 0.043-0.089 0.154-0.348 0.163-0.735 0.026-1.089s-0.404-0.635-0.752-0.788c-0.718-0.317-1.561 0.009-1.878 0.727s0.009 1.561 0.727 1.878c0.187 0.082 0.381 0.122 0.574 0.122 0.194 0 0.385-0.041 0.561-0.116 0.087 0.086 0.683 0.664 1.457 1.169-0.745 0.402-1.584 0.836-2.513 1.292-0.177-0.28-0.582-0.874-1.176-1.507-1.083-1.151-2.291-1.877-3.493-2.1-1.247-0.23-2.264-0.474-3.107-0.745-1.014-0.326-1.762-0.688-2.222-1.077-0.25-0.212-0.595-0.241-0.879-0.075-0.285 0.167-0.428 0.483-0.366 0.807 0.222 1.153 0.899 3.292 2.94 4.656 1.272 0.85 2.87 1.276 4.775 1.276 0.315 0 0.64-0.013 0.972-0.036-0.8 0.358-1.648 0.722-2.544 1.087-0.962 0.393-1.854 0.864-2.681 1.384-0.632-0.889-3.017-3.904-7.21-5.413-1.151-0.414-2.362-0.613-3.599-0.593-0.262 0.005-0.471 0.221-0.467 0.483 0.004 0.259 0.216 0.467 0.474 0.467 0.003 0 0.005-0 0.008-0 1.122-0.019 2.219 0.162 3.262 0.537 2.995 1.078 5.034 3.021 6.080 4.224-1.872-0.585-5.032-1.792-6.395-2.329-0.244-0.096-0.519 0.024-0.616 0.268s0.024 0.519 0.268 0.616c0.45 0.178 3.279 1.287 5.487 2.034-1.552 0.113-3.598 0.159-5.334-0.146-2.628-0.462-6.174-3.122-7.34-4.044 0.616-0.313 1.567-0.713 2.753-0.955 0.257-0.052 0.423-0.303 0.37-0.56s-0.303-0.423-0.56-0.37c-1.364 0.278-2.443 0.75-3.107 1.097-0.263 0.137-0.437 0.396-0.465 0.691s0.093 0.582 0.325 0.767c1.416 1.129 5.017 3.81 7.859 4.31 1.049 0.184 2.187 0.249 3.269 0.249 1.252 0 2.427-0.087 3.3-0.175-1.102 0.865-2.053 1.797-2.855 2.7-0.554-0.448-2.828-2.124-6.092-2.338-2.959-0.194-5.078 1.471-5.852 2.196v0c-0.199 0.186-0.288 0.457-0.239 0.725s0.229 0.489 0.48 0.593c1.083 0.445 3.659 1.41 5.654 1.41 0.191 0 0.377-0.009 0.556-0.028 1.549-0.165 3.255-0.747 4.353-1.177-0.12 0.156-0.234 0.31-0.344 0.459-0.631 0.865-1.145 1.679-1.547 2.377-0.771-0.099-1.42-0.083-1.527-0.079-0.007-0.015-0.012-0.031-0.020-0.046-0.168-0.341-0.458-0.597-0.818-0.72s-0.746-0.098-1.088 0.069c-0.341 0.168-0.597 0.458-0.72 0.818s-0.098 0.746 0.069 1.088c0.168 0.341 0.458 0.597 0.818 0.72 0.151 0.052 0.307 0.077 0.462 0.077 0.214-0 0.428-0.049 0.626-0.146 0.341-0.168 0.597-0.458 0.72-0.818 0.011-0.031 0.019-0.063 0.027-0.094 0.133-0.003 0.5-0.005 0.954 0.034-0.27 0.516-0.453 0.913-0.554 1.144-0.282 0.163-2.734 1.654-4.022 4.698-1.066 2.519-0.268 4.878 0.124 5.775 0 0 0 0 0 0 0.11 0.251 0.336 0.425 0.606 0.468 0.042 0.007 0.083 0.010 0.124 0.010 0.226 0 0.441-0.096 0.594-0.269 2.351-2.662 2.938-4.382 3.081-4.998 0.437-1.879 0.309-4.226 0.246-5.042 0.012-0.021 0.023-0.042 0.032-0.065 0.008-0.020 0.831-2.046 2.579-4.441 0.039-0.054 0.080-0.108 0.12-0.163-0.495 1.559-1.201 4.147-1.276 6.442-0.094 2.861 1.77 6.912 2.575 8.52 0.139 0.278 0.407 0.465 0.717 0.499 0.034 0.004 0.067 0.005 0.101 0.005 0.274 0 0.534-0.123 0.71-0.339 0.929-1.144 3.027-4.246 2.458-8.326-0.696-4.992-3.754-8.116-4.011-8.371 0.812-0.918 1.785-1.869 2.919-2.741-0.049 1.305 0.472 2.731 0.567 2.976-0.279 0.26-0.454 0.63-0.454 1.041 0 0.785 0.639 1.424 1.424 1.424s1.424-0.639 1.424-1.424c0-0.785-0.639-1.424-1.424-1.424-0.033 0-0.066 0.001-0.099 0.004-0.247-0.664-0.742-2.414-0.34-3.333 0.009-0.020 0.015-0.039 0.021-0.059 0.86-0.564 1.798-1.073 2.816-1.489 1.062-0.434 2.060-0.866 2.991-1.288-0.856 1.347-2.143 3.575-2.78 5.687-0.791 2.622-0.081 6.831 0.261 8.519 0.067 0.334 0.298 0.605 0.616 0.726 0.115 0.044 0.234 0.065 0.352 0.065 0.21 0 0.416-0.067 0.59-0.198 0.778-0.583 2.233-1.849 3.238-3.781 0.121-0.233 0.031-0.519-0.202-0.64s-0.519-0.031-0.64 0.202c-0.918 1.765-2.252 2.925-2.965 3.459-0.005 0.004-0.017 0.012-0.036 0.005s-0.022-0.021-0.023-0.027c-0.328-1.618-1.011-5.641-0.282-8.057 0.602-1.997 1.859-4.166 2.687-5.469-0.054 3.338-1.307 7.366-1.321 7.412-0.079 0.25 0.060 0.516 0.31 0.595 0.047 0.015 0.095 0.022 0.143 0.022 0.202 0 0.389-0.13 0.453-0.332 0.056-0.178 1.11-3.564 1.328-6.795 0.496 1.501 0.952 3.681 0.649 6.16-0.053 0.438-0.14 0.873-0.257 1.295-0.070 0.253 0.078 0.514 0.33 0.584s0.514-0.078 0.584-0.33c0.13-0.467 0.226-0.95 0.285-1.434 0.507-4.153-0.942-7.458-1.489-8.528 1.022-0.495 1.942-0.968 2.757-1.405-0.056 0.967 0.075 1.846 0.095 1.972-0.014 0.009-0.029 0.016-0.043 0.025-0.318 0.208-0.537 0.528-0.614 0.9-0.161 0.768 0.334 1.524 1.102 1.685 0.098 0.021 0.196 0.030 0.292 0.030 0.66 0 1.253-0.462 1.393-1.132 0.078-0.372 0.006-0.753-0.202-1.071s-0.528-0.537-0.9-0.614c-0.032-0.007-0.065-0.011-0.097-0.015-0.036-0.25-0.178-1.359-0.011-2.335 2.257-1.262 3.46-2.114 3.483-2.13 0.213-0.152 0.263-0.448 0.11-0.662zM24.965 2.906c-0.265 0-0.48-0.215-0.48-0.48s0.215-0.48 0.48-0.48c0.265 0 0.48 0.215 0.48 0.48s-0.215 0.48-0.48 0.48zM6.344 18.916c-0.265 0-0.48-0.215-0.48-0.48s0.215-0.48 0.48-0.48c0.265 0 0.48 0.215 0.48 0.48s-0.215 0.48-0.48 0.48zM7.698 25.448c-0.097 0.415-0.575 1.938-2.705 4.398-0.356-0.908-0.87-2.804-0.026-4.799 0.817-1.933 2.183-3.192 2.988-3.808 0.051 1.013 0.074 2.786-0.257 4.209zM6.604 15.33c-0.465 0.049-2.215 0.103-5.524-1.225 0.797-0.695 2.573-1.936 4.962-1.78 2.321 0.152 4.125 1.141 5.024 1.743-1.004 0.41-2.854 1.090-4.463 1.261zM13.176 23.585c0.009 0.257 0.219 0.459 0.474 0.459 0.005 0 0.011-0 0.016-0 0.262-0.009 0.467-0.228 0.459-0.49-0.006-0.184-0.132-3.791-0.703-6.99 0.938 1.348 2.133 3.536 2.522 6.321 0.511 3.662-1.354 6.475-2.221 7.555-0.63-1.265-2.538-5.332-2.45-8.014 0.068-2.059 0.692-4.434 1.165-5.962 0.602 3.214 0.737 7.076 0.739 7.121zM17.329 15.184c0.262 0 0.475 0.213 0.475 0.475s-0.213 0.475-0.475 0.475c-0.262 0-0.475-0.213-0.475-0.475s0.213-0.475 0.475-0.475zM16.693 5.361c-1.46-0.976-2.126-2.404-2.428-3.571 1.058 0.698 2.785 1.252 5.363 1.729 1.757 0.325 3.111 1.883 3.738 2.742-2.827 0.474-5.070 0.172-6.674-0.9zM28.624 8.999c0 0.265-0.215 0.48-0.48 0.48s-0.48-0.215-0.48-0.48c0-0.265 0.215-0.48 0.48-0.48s0.48 0.215 0.48 0.48z"></path>
</svg>
