<!-- Generated by IcoMoon.io -->
<svg version="1.1" xmlns="http://www.w3.org/2000/svg" width="32" height="32" viewBox="0 0 32 32">
<title>ligredients</title>
<path fill="#514633" d="M31.519 3.729c-0.463-1.454-1.090-2.495-1.116-2.539-0.103-0.169-0.314-0.257-0.506-0.213-0.050 0.011-1.234 0.287-2.6 0.969-1.844 0.92-3.132 2.148-3.726 3.551-0.494 1.168-0.565 2.597-0.214 4.175-0.747-0.833-1.586-1.562-2.502-2.175-0.28-0.552-1.019-1.91-2.174-3.33-0.381-0.467-1.113 0.119-0.728 0.591 0.779 0.957 1.365 1.898 1.731 2.544l-4.274-0.832-4.060-5.534c0.394 0.005 0.79 0.044 1.184 0.121 1.248 0.244 2.481 0.879 3.665 1.887 0.464 0.395 1.066-0.324 0.608-0.714-1.308-1.114-2.685-1.818-4.093-2.094-2.15-0.42-4.657 0.131-7.251 1.596-1.934 1.092-3.227 2.291-3.281 2.341-0.173 0.162-0.201 0.455-0.056 0.644 0.19 0.389 0.908 1.791 2.104 3.3 0.705 0.89 1.449 1.652 2.218 2.278-0.219 0.183-0.431 0.374-0.637 0.576-1.099 1.074-1.941 2.342-2.494 3.727-0.488 1.224-0.751 2.541-0.766 3.899-0.024 2.22 0.619 4.361 1.862 6.191 1.214 1.788 2.91 3.161 4.906 3.971 0.559 0.226 0.912-0.642 0.353-0.869-0.723-0.293-1.403-0.669-2.029-1.115 0.080-0.444 0.266-2.043-0.797-3.697-0.149-0.231 0.296-1.14 0.561-1.683 0.274-0.56 0.557-1.138 0.689-1.683 0.14-0.579-0.018-1.064-0.456-1.405-0.322-0.25-0.744-0.38-1.115-0.494-0.241-0.074-0.515-0.158-0.613-0.24-0.201-0.169-0.53-0.791-0.794-1.292-0.293-0.555-0.572-1.083-0.857-1.408 0.641-1.522 1.671-2.869 2.962-3.899 1.179 0.802 2.524 1.356 3.953 1.468-1.658 1.284-2.194 2.923-1.428 4.497 0.895 1.839 2.738 1.545 4.364 1.286 0.281-0.045 0.572-0.091 0.851-0.126 0.105-0.013 0.136 0.015 0.157 0.034 0.356 0.316 0.345 1.828 0.338 2.931-0.010 1.526-0.020 2.968 0.549 3.708 0.29 0.377 0.699 0.57 1.178 0.57 0.287 0 0.599-0.069 0.926-0.209 1.415-0.605 2.886-2.428 2.662-3.87-0.196-1.261-0.326-2.093-0.020-2.765 0.283-0.621 0.967-1.197 2.313-1.93 0.161 0.726 0.243 1.48 0.234 2.255-0.029 2.643-1.086 5.117-2.977 6.966-2.114 2.066-5.084 3.086-8.023 2.763-0.599-0.065-0.702 0.866-0.103 0.932 3.216 0.354 6.468-0.763 8.781-3.024 2.071-2.024 3.228-4.732 3.26-7.626 0.042-3.837-1.929-7.237-4.928-9.195 0.62-0.442 1.082-0.823 1.338-1.045 1.094 0.784 2.064 1.75 2.871 2.875 1.938 2.702 2.706 5.995 2.164 9.275-1.119 6.769-7.541 11.368-14.317 10.249-3.282-0.542-6.157-2.328-8.094-5.029s-2.706-5.996-2.164-9.275c0.097-0.59-0.828-0.745-0.926-0.153-0.583 3.526 0.244 7.068 2.327 9.974s5.175 4.826 8.704 5.408c0.738 0.122 1.477 0.182 2.211 0.182 2.774 0 5.472-0.861 7.771-2.507 2.908-2.082 4.83-5.17 5.413-8.696 0.427-2.584 0.097-5.176-0.93-7.521 0.474-0.14 1.28-0.411 2.163-0.851 1.844-0.92 3.132-2.148 3.725-3.551s0.577-3.182-0.048-5.144zM4.289 16.619c0.349 0.661 0.679 1.286 1.022 1.573 0.243 0.203 0.581 0.307 0.939 0.417 0.917 0.282 1.024 0.42 0.936 0.782-0.108 0.445-0.368 0.978-0.62 1.492-0.485 0.991-0.942 1.926-0.508 2.602 0.615 0.958 0.721 1.901 0.71 2.487-2.794-2.518-3.932-6.495-2.891-10.109 0.138 0.236 0.283 0.511 0.413 0.756zM26.988 7.407l-1.333-3.228c0.649-0.606 1.402-1.063 2.043-1.384 0.546-0.274 1.066-0.479 1.482-0.624l-2.192 5.236zM30.044 2.535c0.186 0.4 0.402 0.916 0.587 1.499 0.202 0.64 0.388 1.433 0.425 2.26l-3.125 1.288 2.113-5.047zM24.435 5.862c0.138-0.327 0.317-0.63 0.524-0.91l1.518 3.675-1.362 3.254c-0.191-0.406-0.417-0.938-0.608-1.544-0.384-1.212-0.707-2.972-0.072-4.475zM27.441 11.577c-0.526 0.264-1.027 0.463-1.436 0.607l1.413-3.376 3.598-1.483c-0.052 0.403-0.152 0.802-0.314 1.185-0.636 1.503-2.125 2.498-3.262 3.068zM10.523 11.31c-0.166-0.032-0.329-0.072-0.491-0.117l5.192-3.803 4.276 0.833c-1.558 1.226-5.348 3.798-8.977 3.088zM5.778 8.377c-1.11-1.196-1.924-2.475-2.392-3.293l5.441 1.060-3.049 2.233zM6.739 2.122l2.276 3.103-5.476-1.067c0.689-0.544 1.827-1.361 3.2-2.036zM10.373 5.489l-2.76-3.761c0.826-0.339 1.713-0.606 2.622-0.725l3.818 5.203-3.68-0.717zM10.081 6.388l3.891 0.758-4.994 3.658c-0.942-0.435-1.789-1.059-2.531-1.754l3.634-2.662zM22.811 15.542c-1.691 0.9-2.52 1.608-2.912 2.47-0.422 0.926-0.267 1.921-0.053 3.297 0.126 0.812-0.839 2.323-2.103 2.864-0.468 0.2-0.801 0.177-0.991-0.070-0.373-0.485-0.363-1.952-0.355-3.131 0.011-1.631 0.021-3.039-0.652-3.638-0.242-0.215-0.552-0.306-0.896-0.264-0.295 0.037-0.594 0.084-0.883 0.13-1.725 0.275-2.81 0.385-3.372-0.77-0.911-1.87 0.933-3.256 1.768-3.765 0.17-0.104 0.328-0.226 0.474-0.361 2.018-0.241 3.925-1.106 5.625-2.19 2.038 1.216 3.602 3.141 4.352 5.428z"></path>
</svg>
