<!-- Generated by IcoMoon.io -->
<svg version="1.1" xmlns="http://www.w3.org/2000/svg" width="38" height="32" viewBox="0 0 38 32">
<title>list-ul</title>
<path d="M6 12c0.35 0 0.625 0.125 0.825 0.375 0.25 0.2 0.375 0.475 0.375 0.825v4.8c0 0.35-0.125 0.65-0.375 0.9-0.2 0.2-0.475 0.3-0.825 0.3h-4.8c-0.35 0-0.65-0.1-0.9-0.3-0.2-0.25-0.3-0.55-0.3-0.9v-4.8c0-0.35 0.1-0.625 0.3-0.825 0.25-0.25 0.55-0.375 0.9-0.375h4.8zM6 24c0.35 0 0.625 0.125 0.825 0.375 0.25 0.2 0.375 0.475 0.375 0.825v4.8c0 0.35-0.125 0.625-0.375 0.825-0.2 0.25-0.475 0.375-0.825 0.375h-4.8c-0.35 0-0.65-0.125-0.9-0.375-0.2-0.2-0.3-0.475-0.3-0.825v-4.8c0-0.35 0.1-0.625 0.3-0.825 0.25-0.25 0.55-0.375 0.9-0.375h4.8zM6 0c0.35 0 0.625 0.125 0.825 0.375 0.25 0.2 0.375 0.475 0.375 0.825v4.8c0 0.35-0.125 0.65-0.375 0.9-0.2 0.2-0.475 0.3-0.825 0.3h-4.8c-0.35 0-0.65-0.1-0.9-0.3-0.2-0.25-0.3-0.55-0.3-0.9v-4.8c0-0.35 0.1-0.625 0.3-0.825 0.25-0.25 0.55-0.375 0.9-0.375h4.8zM36.6 13.8c0.5 0 0.925 0.175 1.275 0.525s0.525 0.775 0.525 1.275c0 0.5-0.175 0.925-0.525 1.275s-0.775 0.525-1.275 0.525h-22.8c-0.5 0-0.925-0.175-1.275-0.525s-0.525-0.775-0.525-1.275c0-0.5 0.175-0.925 0.525-1.275s0.775-0.525 1.275-0.525h22.8zM36.6 1.8c0.5 0 0.925 0.175 1.275 0.525s0.525 0.775 0.525 1.275c0 0.5-0.175 0.925-0.525 1.275s-0.775 0.525-1.275 0.525h-22.8c-0.5 0-0.925-0.175-1.275-0.525s-0.525-0.775-0.525-1.275c0-0.5 0.175-0.925 0.525-1.275s0.775-0.525 1.275-0.525h22.8zM36.6 25.8c0.5 0 0.925 0.175 1.275 0.525s0.525 0.775 0.525 1.275-0.175 0.925-0.525 1.275c-0.35 0.35-0.775 0.525-1.275 0.525h-22.8c-0.5 0-0.925-0.175-1.275-0.525s-0.525-0.775-0.525-1.275 0.175-0.925 0.525-1.275c0.35-0.35 0.775-0.525 1.275-0.525h22.8z"></path>
</svg>
