<!-- Generated by IcoMoon.io -->
<svg version="1.1" xmlns="http://www.w3.org/2000/svg" width="32" height="32" viewBox="0 0 32 32">
<title>location</title>
<path d="M15.363 32c-0.477 0-0.926-0.224-1.182-0.352-0.771-0.386-1.329-1.808-2.033-3.774-0.188-0.526-0.366-1.022-0.486-1.264-0.488-0.975-0.512-6.465-0.512-7.556v-1.619l-0.734-0.734c-0.628-0.444-2.472-1.837-2.472-2.913 0-0.533-0.76-2.041-1.301-2.941-0.141-0.235-0.072-0.539 0.155-0.691 0.333-0.224 1.232-0.972 1.384-1.735 0.177-0.882 0.054-3.173-0.008-3.981-0.015-0.198 0.085-0.387 0.257-0.486 1-0.571 3.404-1.899 4.147-1.899 0.485 0 1.142 0.234 1.803 0.641 0.242 0.149 0.317 0.466 0.168 0.707-0.15 0.241-0.466 0.317-0.707 0.168-0.547-0.338-1.029-0.489-1.264-0.489-0.354 0.021-1.961 0.822-3.358 1.606 0.053 0.821 0.165 2.955-0.031 3.935-0.185 0.926-0.957 1.694-1.435 2.093 0.43 0.759 1.216 2.259 1.216 3.073 0 0.339 0.987 1.338 2.071 2.097 0.024 0.017 0.048 0.037 0.068 0.058l0.916 0.916c0.096 0.096 0.151 0.227 0.151 0.363v1.832c0 3.092 0.151 6.592 0.404 7.097 0.148 0.297 0.328 0.798 0.535 1.377 0.345 0.965 1.063 2.97 1.525 3.202 0.281 0.14 0.676 0.314 0.856 0.215 0.080-0.044 0.35-0.276 0.463-1.409 0.23-2.3 0.461-3.24 0.471-3.279 0.018-0.071 0.051-0.138 0.097-0.196l1.673-2.090-0.167-0.669c-0.039-0.153-0.004-0.316 0.093-0.441s0.247-0.197 0.405-0.197c-0.003 0 0.549-0.025 1.295-0.584 0.185-0.138 0.202-0.387 0.197-0.92-0.006-0.694-0.016-1.643 0.972-2.302 0.861-0.574 1.373-0.885 1.642-1.041 0.161-1.165 0.783-5.301 1.65-6.601 0.141-0.212 0.124-0.348 0.093-0.443-0.154-0.471-1.040-0.931-1.444-1.079-0.014-0.006-0.613-0.245-1.343-0.541-0.263-0.106-0.39-0.406-0.284-0.669s0.407-0.39 0.669-0.283c0.729 0.295 1.325 0.533 1.325 0.533 0.159 0.058 1.702 0.646 2.053 1.718 0.101 0.31 0.147 0.793-0.214 1.334-0.697 1.045-1.334 4.99-1.521 6.421-0.022 0.17-0.127 0.317-0.279 0.393-0.003 0.001-0.466 0.239-1.777 1.112-0.5 0.333-0.52 0.763-0.514 1.437 0.006 0.574 0.013 1.288-0.607 1.752-0.499 0.375-0.945 0.572-1.281 0.676l0.098 0.392c0.039 0.155 0.003 0.32-0.097 0.446l-1.758 2.197c-0.063 0.295-0.243 1.236-0.422 3.029-0.12 1.2-0.435 1.901-0.99 2.207-0.206 0.113-0.421 0.156-0.629 0.156z"></path>
<path d="M20.49 13.354c-0.151 0-0.294-0.067-0.392-0.181-0.475-0.56-4.631-5.546-4.631-8.149 0-2.77 2.254-5.023 5.023-5.023s5.023 2.254 5.023 5.023c0 2.604-4.157 7.589-4.631 8.149-0.097 0.115-0.241 0.181-0.392 0.181zM20.49 1.027c-2.203 0-3.996 1.793-3.996 3.996 0 1.71 2.599 5.281 3.996 7.010 1.396-1.729 3.996-5.3 3.996-7.010 0-2.203-1.793-3.996-3.996-3.996zM20.49 7.291c-1.416 0-2.568-1.152-2.568-2.568s1.152-2.568 2.568-2.568c1.416 0 2.568 1.152 2.568 2.568s-1.152 2.568-2.568 2.568zM20.49 3.182c-0.85 0-1.541 0.691-1.541 1.541s0.691 1.541 1.541 1.541c0.85 0 1.541-0.691 1.541-1.541s-0.691-1.541-1.541-1.541z"></path>
</svg>
