<!-- Generated by IcoMoon.io -->
<svg version="1.1" xmlns="http://www.w3.org/2000/svg" width="33" height="32" viewBox="0 0 33 32">
<title>payment</title>
<path d="M31.322 1.612c-1.305-0.085-4.556-0.444-6.526-1.946-0.51-0.395-1.222-0.395-1.732 0-1.97 1.502-5.22 1.861-6.526 1.946-0.736 0.046-1.31 0.654-1.313 1.392v4.391c0 2.124 0.498 4.219 1.454 6.117h-13.961c-1.501 0.002-2.717 1.218-2.719 2.719v13.051c0.002 1.501 1.218 2.717 2.719 2.719h22.839c1.501-0.002 2.717-1.218 2.719-2.719v-11.901c2.766-2.586 4.34-6.199 4.35-9.986v-4.391c-0.003-0.734-0.572-1.342-1.305-1.392zM27.19 29.281c0 0.901-0.73 1.631-1.631 1.631h-22.839c-0.901 0-1.631-0.73-1.631-1.631v-13.051c0-0.901 0.73-1.631 1.631-1.631h14.574c0.084 0.135 0.163 0.272 0.252 0.407 1.441 2.146 3.453 3.846 5.809 4.908 0.366 0.165 0.785 0.165 1.151 0 0.953-0.432 1.854-0.971 2.686-1.607v10.974zM31.54 7.394c-0.018 4.978-2.945 9.487-7.486 11.528-0.081 0.036-0.174 0.036-0.255 0-2.171-0.979-4.026-2.546-5.353-4.524-1.392-2.070-2.135-4.509-2.132-7.005v-4.391c0.001-0.163 0.128-0.296 0.29-0.306 1.745-0.113 4.989-0.544 7.115-2.166 0.122-0.095 0.292-0.095 0.414 0 2.127 1.622 5.371 2.053 7.116 2.166 0.162 0.010 0.289 0.144 0.29 0.306v4.391z"></path>
<path d="M29.525 4.242c-1.769-0.215-3.485-0.747-5.065-1.572-0.33-0.187-0.734-0.187-1.064 0-1.58 0.825-3.296 1.357-5.066 1.572-0.532 0.079-0.927 0.535-0.928 1.073v2.707c-0.002 2.279 0.675 4.506 1.946 6.397 1.038 1.54 2.425 2.813 4.049 3.714 0.33 0.18 0.729 0.18 1.058 0 3.689-2.029 5.986-5.901 5.997-10.111v-2.707c-0.001-0.538-0.396-0.994-0.928-1.073zM29.365 8.022c-0.011 3.816-2.094 7.324-5.438 9.162h-0.005c-1.473-0.818-2.732-1.974-3.673-3.372-1.15-1.712-1.762-3.728-1.76-5.79l-0.006-2.706c1.904-0.228 3.749-0.805 5.444-1.701 1.693 0.895 3.536 1.471 5.438 1.7v2.707z"></path>
<path d="M4.35 21.208h2.175c0.901 0 1.631-0.73 1.631-1.631v-1.088c0-0.901-0.73-1.631-1.631-1.631h-2.175c-0.901 0-1.631 0.73-1.631 1.631v1.088c0 0.901 0.73 1.631 1.631 1.631zM3.806 18.489c0-0.3 0.243-0.544 0.544-0.544h2.175c0.3 0 0.544 0.243 0.544 0.544v1.088c0 0.3-0.243 0.544-0.544 0.544h-2.175c-0.3 0-0.544-0.244-0.544-0.544v-1.088z"></path>
<path d="M3.263 23.927h2.175c0.3 0 0.544-0.243 0.544-0.544s-0.243-0.544-0.544-0.544h-2.175c-0.3 0-0.544 0.243-0.544 0.544s0.243 0.544 0.544 0.544z"></path>
<path d="M9.788 22.839h-2.175c-0.3 0-0.544 0.243-0.544 0.544s0.244 0.544 0.544 0.544h2.175c0.3 0 0.544-0.243 0.544-0.544s-0.243-0.544-0.544-0.544z"></path>
<path d="M14.138 22.839h-2.175c-0.3 0-0.544 0.243-0.544 0.544s0.243 0.544 0.544 0.544h2.175c0.3 0 0.544-0.243 0.544-0.544s-0.243-0.544-0.544-0.544z"></path>
<path d="M18.489 22.839h-2.175c-0.3 0-0.544 0.243-0.544 0.544s0.243 0.544 0.544 0.544h2.175c0.3 0 0.544-0.243 0.544-0.544s-0.243-0.544-0.544-0.544z"></path>
<path d="M23.383 23.383c0-0.3-0.243-0.544-0.544-0.544h-2.175c-0.3 0-0.544 0.243-0.544 0.544s0.243 0.544 0.544 0.544h2.175c0.3 0 0.544-0.243 0.544-0.544z"></path>
<path d="M7.069 26.102h-1.631c-0.3 0-0.544 0.243-0.544 0.544s0.243 0.544 0.544 0.544h1.631c0.3 0 0.544-0.243 0.544-0.544s-0.243-0.544-0.544-0.544z"></path>
<path d="M7.069 28.277h-3.807c-0.3 0-0.544 0.243-0.544 0.544s0.243 0.544 0.544 0.544h3.807c0.3 0 0.544-0.243 0.544-0.544s-0.243-0.544-0.544-0.544z"></path>
<path d="M22.296 7.613v0.544c-0.601 0-1.088 0.487-1.088 1.088v3.263c0 0.601 0.487 1.088 1.088 1.088h3.263c0.601 0 1.088-0.487 1.088-1.088v-3.263c0-0.601-0.487-1.088-1.088-1.088v-0.544c0-0.901-0.73-1.631-1.631-1.631s-1.631 0.73-1.631 1.631zM23.383 7.613c0-0.3 0.243-0.544 0.544-0.544s0.544 0.243 0.544 0.544v0.544h-1.088v-0.544zM25.558 9.244v3.263h-3.263v-3.263h3.263z"></path>
<path d="M23.927 11.42c0.3 0 0.544-0.243 0.544-0.544s-0.243-0.544-0.544-0.544c-0.3 0-0.544 0.243-0.544 0.544s0.244 0.544 0.544 0.544z"></path>
<path d="M24.471 28.821h-2.719c-0.3 0-0.544 0.244-0.544 0.544s0.243 0.544 0.544 0.544h3.263c0.3 0 0.544-0.243 0.544-0.544v-2.719c0-0.3-0.243-0.544-0.544-0.544s-0.544 0.243-0.544 0.544v2.175z"></path>
</svg>
