<!-- Generated by IcoMoon.io -->
<svg version="1.1" xmlns="http://www.w3.org/2000/svg" width="32" height="32" viewBox="0 0 32 32">
<title>phone-1</title>
<path d="M2.635 20.916c-0.605 0.242-1.049 0.666-1.332 1.271-0.323 0.565-0.404 1.171-0.242 1.816l1.332 5.752c0.161 0.605 0.484 1.11 0.969 1.514s1.049 0.605 1.695 0.605c3.633 0 7.124-0.727 10.475-2.18 3.31-1.413 6.176-3.31 8.598-5.691 2.381-2.422 4.299-5.288 5.752-8.598 1.413-3.35 2.119-6.842 2.119-10.475 0-0.646-0.202-1.211-0.605-1.695s-0.908-0.807-1.514-0.969l-5.752-1.332c-0.605-0.161-1.211-0.081-1.816 0.242-0.605 0.283-1.029 0.727-1.271 1.332l-2.664 6.176c-0.242 0.565-0.283 1.15-0.121 1.756 0.121 0.565 0.424 1.050 0.908 1.453l2.422 1.998c-1.776 3.269-4.299 5.792-7.568 7.568l-1.998-2.422c-0.363-0.484-0.848-0.787-1.453-0.908-0.605-0.161-1.191-0.121-1.756 0.121l-6.176 2.664zM4.27 29.332l-1.332-5.752c-0.081-0.444 0.081-0.747 0.484-0.908l6.176-2.664c0.363-0.121 0.666-0.040 0.908 0.242l2.543 3.088c0.323 0.404 0.706 0.484 1.15 0.242 4.238-2.099 7.407-5.268 9.506-9.506 0.242-0.444 0.161-0.828-0.242-1.15l-3.088-2.543c-0.283-0.242-0.363-0.545-0.242-0.908l2.664-6.176c0.121-0.323 0.363-0.484 0.727-0.484 0.081 0 0.141 0 0.182 0l5.752 1.332c0.404 0.121 0.605 0.383 0.605 0.787 0 4.521-1.11 8.699-3.33 12.533-2.26 3.835-5.308 6.882-9.143 9.143-3.835 2.22-8.012 3.33-12.533 3.33-0.404 0-0.666-0.202-0.787-0.605z"></path>
</svg>
