<!-- Generated by IcoMoon.io -->
<svg version="1.1" xmlns="http://www.w3.org/2000/svg" width="24" height="32" viewBox="0 0 24 32">
<title>pin</title>
<path d="M3.391 4.266c2.26-2.26 5.005-3.391 8.234-3.391s5.974 1.13 8.234 3.391c2.26 2.26 3.391 5.005 3.391 8.234 0 0.686-0.040 1.292-0.121 1.816-0.040 0.484-0.202 1.070-0.484 1.756-0.242 0.686-0.484 1.251-0.727 1.695-0.202 0.444-0.646 1.211-1.332 2.301-0.686 1.049-1.292 1.938-1.816 2.664s-1.413 1.978-2.664 3.754c-1.211 1.776-2.301 3.37-3.27 4.783-0.283 0.404-0.686 0.605-1.211 0.605s-0.928-0.202-1.211-0.605c-0.969-1.413-2.079-3.007-3.33-4.783-1.211-1.776-2.079-3.027-2.603-3.754s-1.13-1.615-1.816-2.664c-0.686-1.090-1.15-1.857-1.393-2.301-0.202-0.444-0.444-1.009-0.727-1.695-0.242-0.686-0.404-1.271-0.484-1.756-0.040-0.525-0.061-1.13-0.061-1.816 0-3.229 1.13-5.974 3.391-8.234zM11.625 29.574c0.848-1.251 1.796-2.604 2.846-4.057 1.050-1.494 1.816-2.583 2.301-3.27 0.484-0.727 1.029-1.534 1.635-2.422s1.029-1.534 1.271-1.938c0.242-0.444 0.505-0.928 0.787-1.453 0.283-0.565 0.464-1.029 0.545-1.393s0.141-0.747 0.182-1.15c0.081-0.404 0.121-0.868 0.121-1.393 0-2.664-0.949-4.945-2.846-6.842s-4.178-2.846-6.842-2.846c-2.664 0-4.945 0.949-6.842 2.846s-2.846 4.178-2.846 6.842c0 0.525 0.020 0.989 0.061 1.393 0.081 0.404 0.161 0.787 0.242 1.15s0.262 0.827 0.545 1.393c0.283 0.525 0.545 1.009 0.787 1.453 0.242 0.404 0.666 1.049 1.271 1.938s1.15 1.695 1.635 2.422c0.525 0.686 1.292 1.776 2.301 3.27 1.049 1.453 1.998 2.805 2.846 4.057zM8.174 9.109c0.969-0.969 2.119-1.453 3.451-1.453s2.462 0.484 3.391 1.453c0.969 0.928 1.453 2.059 1.453 3.391s-0.484 2.482-1.453 3.451c-0.928 0.928-2.059 1.393-3.391 1.393s-2.482-0.464-3.451-1.393c-0.928-0.969-1.393-2.119-1.393-3.451s0.464-2.462 1.393-3.391zM9.566 14.559c0.565 0.565 1.251 0.848 2.059 0.848s1.494-0.283 2.059-0.848c0.565-0.565 0.848-1.251 0.848-2.059s-0.283-1.494-0.848-2.059c-0.565-0.565-1.251-0.848-2.059-0.848s-1.494 0.283-2.059 0.848c-0.565 0.565-0.848 1.251-0.848 2.059s0.283 1.494 0.848 2.059z"></path>
</svg>
