<!-- Generated by IcoMoon.io -->
<svg version="1.1" xmlns="http://www.w3.org/2000/svg" width="45" height="32" viewBox="0 0 45 32">
<title>quote</title>
<path d="M40.934 17.611c1.906-3.216 3.373-5.822 3.373-8.883 0-4.896-3.959-8.728-8.658-8.728-5.136 0-9.391 3.981-9.391 9.033 0 4.441 2.787 7.502 6.456 7.963l-8.948 15.005h8.658l8.51-14.389zM17.168 17.611c1.906-3.216 3.373-5.817 3.373-8.878 0-4.896-3.959-8.728-8.658-8.728-5.136 0-9.391 3.981-9.391 9.033 0 4.441 2.787 7.502 6.456 7.963l-8.948 15h8.658l8.51-14.389z"></path>
</svg>
