<!-- Generated by IcoMoon.io -->
<svg version="1.1" xmlns="http://www.w3.org/2000/svg" width="33" height="32" viewBox="0 0 33 32">
<title>return</title>
<path d="M20.302 29.591h-19.53c-0.157 0-0.307-0.062-0.418-0.173s-0.173-0.261-0.173-0.418v-23.636c0-0.157 0.062-0.307 0.173-0.418s0.261-0.173 0.418-0.173h26c0.157 0 0.307 0.062 0.418 0.173s0.173 0.261 0.173 0.418v11.919c0 0.157-0.062 0.307-0.173 0.418s-0.261 0.173-0.418 0.173-0.307-0.062-0.418-0.173c-0.111-0.111-0.173-0.261-0.173-0.418v-11.328h-24.818v22.455h18.939c0.157 0 0.307 0.062 0.418 0.173s0.173 0.261 0.173 0.418-0.062 0.307-0.173 0.418c-0.111 0.111-0.261 0.173-0.418 0.173z"></path>
<path d="M26.773 5.955h-26c-0.11 0-0.217-0.031-0.311-0.088s-0.169-0.14-0.218-0.238c-0.049-0.098-0.070-0.208-0.060-0.317s0.050-0.214 0.116-0.301l3.545-4.727c0.055-0.073 0.126-0.133 0.208-0.174s0.173-0.062 0.264-0.062h18.909c0.092-0 0.182 0.021 0.264 0.062s0.153 0.101 0.208 0.174l3.545 4.727c0.066 0.088 0.106 0.192 0.116 0.301s-0.011 0.219-0.060 0.317-0.125 0.181-0.218 0.238c-0.093 0.058-0.201 0.088-0.311 0.088zM1.955 4.773h23.636l-2.659-3.545h-18.318l-2.659 3.545z"></path>
<path d="M17.318 13.045c-0.157 0-0.307-0.062-0.418-0.173l-0.764-0.764-0.764 0.764c-0.055 0.055-0.12 0.098-0.192 0.128s-0.149 0.045-0.226 0.045-0.154-0.015-0.226-0.045c-0.072-0.030-0.137-0.073-0.192-0.128l-0.764-0.764-0.764 0.764c-0.055 0.055-0.12 0.098-0.192 0.128s-0.149 0.045-0.226 0.045-0.154-0.015-0.226-0.045c-0.072-0.030-0.137-0.073-0.192-0.128l-0.764-0.764-0.764 0.764c-0.083 0.083-0.188 0.139-0.302 0.162s-0.233 0.011-0.341-0.034-0.2-0.12-0.265-0.218c-0.065-0.097-0.1-0.211-0.1-0.328v-7.091c0-0.157 0.062-0.307 0.173-0.418s0.261-0.173 0.418-0.173h7.091c0.157 0 0.307 0.062 0.418 0.173s0.173 0.261 0.173 0.418v7.091c0 0.157-0.062 0.307-0.173 0.418s-0.261 0.173-0.418 0.173zM13.773 10.682c0.078-0 0.154 0.015 0.226 0.045s0.137 0.073 0.192 0.128l0.764 0.764 0.764-0.764c0.055-0.055 0.12-0.098 0.192-0.128s0.148-0.045 0.226-0.045 0.154 0.015 0.226 0.045c0.072 0.030 0.137 0.073 0.192 0.128l0.173 0.173v-5.073h-5.909v5.073l0.173-0.173c0.055-0.055 0.12-0.098 0.192-0.128s0.149-0.045 0.226-0.045 0.154 0.015 0.226 0.045c0.072 0.030 0.137 0.073 0.192 0.128l0.764 0.764 0.764-0.764c0.055-0.055 0.12-0.099 0.192-0.128s0.149-0.045 0.226-0.045z"></path>
<path d="M17.318 5.955h-7.091c-0.090-0-0.178-0.021-0.259-0.060s-0.151-0.097-0.207-0.167c-0.055-0.071-0.094-0.153-0.112-0.241s-0.017-0.179 0.005-0.266l1.182-4.727c0.032-0.128 0.106-0.241 0.21-0.323s0.232-0.125 0.364-0.125h4.727c0.132 0 0.26 0.044 0.364 0.125s0.178 0.195 0.21 0.323l1.182 4.727c0.022 0.087 0.023 0.178 0.005 0.266s-0.057 0.17-0.112 0.241c-0.055 0.071-0.126 0.128-0.207 0.167s-0.169 0.060-0.259 0.060zM10.984 4.773h5.577l-0.886-3.545h-3.804l-0.886 3.545z"></path>
<path d="M25.591 31.954c-1.519 0-3.005-0.45-4.268-1.295s-2.248-2.044-2.829-3.447c-0.581-1.404-0.734-2.948-0.437-4.438s1.028-2.859 2.102-3.933c1.074-1.074 2.443-1.806 3.933-2.102s3.035-0.144 4.438 0.437c1.404 0.581 2.603 1.566 3.447 2.829s1.295 2.748 1.295 4.268c-0.002 2.037-0.812 3.989-2.253 5.429s-3.393 2.25-5.429 2.253zM25.591 17.773c-1.286 0-2.542 0.381-3.611 1.096s-1.902 1.729-2.394 2.917c-0.492 1.188-0.621 2.495-0.37 3.756s0.87 2.419 1.779 3.328c0.909 0.909 2.067 1.528 3.328 1.779s2.568 0.122 3.756-0.37c1.188-0.492 2.203-1.325 2.917-2.394s1.095-2.326 1.095-3.611c-0.002-1.723-0.687-3.375-1.906-4.594s-2.871-1.904-4.594-1.906z"></path>
<path d="M4.318 24.864c-0.157 0-0.307-0.062-0.418-0.173s-0.173-0.261-0.173-0.418v-3.545c0-0.157 0.062-0.307 0.173-0.418s0.261-0.173 0.418-0.173 0.307 0.062 0.418 0.173c0.111 0.111 0.173 0.261 0.173 0.418v3.545c0 0.157-0.062 0.307-0.173 0.418s-0.261 0.173-0.418 0.173z"></path>
<path d="M5.5 22.5c-0.078 0-0.154-0.015-0.226-0.045s-0.137-0.073-0.192-0.128l-0.764-0.764-0.764 0.764c-0.111 0.108-0.261 0.167-0.416 0.166s-0.303-0.064-0.413-0.173c-0.11-0.11-0.172-0.258-0.173-0.413s0.058-0.304 0.166-0.416l1.182-1.182c0.055-0.055 0.12-0.098 0.192-0.128s0.149-0.045 0.226-0.045 0.154 0.015 0.226 0.045c0.072 0.030 0.137 0.073 0.192 0.128l1.182 1.182c0.083 0.083 0.139 0.188 0.162 0.302s0.011 0.233-0.034 0.341c-0.045 0.108-0.12 0.2-0.218 0.265s-0.211 0.1-0.328 0.1z"></path>
<path d="M9.045 24.864c-0.157 0-0.307-0.062-0.418-0.173s-0.173-0.261-0.173-0.418v-3.545c0-0.157 0.062-0.307 0.173-0.418s0.261-0.173 0.418-0.173 0.307 0.062 0.418 0.173c0.111 0.111 0.173 0.261 0.173 0.418v3.545c0 0.157-0.062 0.307-0.173 0.418s-0.261 0.173-0.418 0.173z"></path>
<path d="M10.227 22.5c-0.078 0-0.154-0.015-0.226-0.045s-0.137-0.073-0.192-0.128l-0.764-0.764-0.764 0.764c-0.111 0.108-0.261 0.167-0.416 0.166s-0.303-0.064-0.413-0.173c-0.11-0.11-0.172-0.258-0.173-0.413s0.058-0.304 0.166-0.416l1.182-1.182c0.055-0.055 0.12-0.098 0.191-0.128s0.149-0.045 0.226-0.045 0.154 0.015 0.226 0.045c0.072 0.030 0.137 0.073 0.192 0.128l1.182 1.182c0.083 0.083 0.139 0.188 0.162 0.302s0.011 0.233-0.034 0.341-0.12 0.2-0.218 0.265c-0.097 0.065-0.211 0.1-0.328 0.1z"></path>
<path d="M10.227 27.227h-7.091c-0.157 0-0.307-0.062-0.418-0.173s-0.173-0.261-0.173-0.418c0-0.157 0.062-0.307 0.173-0.418s0.261-0.173 0.418-0.173h7.091c0.157 0 0.307 0.062 0.418 0.173s0.173 0.261 0.173 0.418-0.062 0.307-0.173 0.418c-0.111 0.111-0.261 0.173-0.418 0.173z"></path>
<path d="M24.408 25.454c-0.128 0-0.252-0.041-0.354-0.118l-2.364-1.773c-0.074-0.055-0.133-0.126-0.174-0.208s-0.063-0.173-0.063-0.264 0.021-0.182 0.063-0.264c0.041-0.082 0.101-0.153 0.174-0.208l2.364-1.773c0.062-0.048 0.133-0.083 0.209-0.104s0.155-0.025 0.232-0.015c0.078 0.010 0.152 0.036 0.22 0.076s0.127 0.092 0.174 0.155c0.047 0.063 0.081 0.134 0.1 0.21s0.023 0.155 0.011 0.233c-0.012 0.078-0.039 0.152-0.079 0.219s-0.094 0.125-0.158 0.171l-1.733 1.3 1.733 1.3c0.099 0.074 0.173 0.178 0.21 0.297s0.036 0.246-0.004 0.363-0.115 0.22-0.215 0.293c-0.101 0.072-0.222 0.111-0.346 0.111z"></path>
<path d="M27.068 27.818h-1.477c-0.157 0-0.307-0.062-0.418-0.173s-0.173-0.261-0.173-0.418c0-0.157 0.062-0.307 0.173-0.418s0.261-0.173 0.418-0.173h1.477c0.392 0 0.767-0.156 1.045-0.433s0.433-0.653 0.433-1.045c0-0.392-0.156-0.768-0.433-1.045s-0.653-0.433-1.045-0.433h-5.023c-0.157 0-0.307-0.062-0.418-0.173s-0.173-0.261-0.173-0.418 0.063-0.307 0.173-0.418c0.111-0.111 0.261-0.173 0.418-0.173h5.023c0.705 0 1.382 0.28 1.88 0.779s0.779 1.175 0.779 1.88c0 0.705-0.28 1.382-0.779 1.88s-1.175 0.779-1.88 0.779z"></path>
</svg>
