<!-- Generated by IcoMoon.io -->
<svg version="1.1" xmlns="http://www.w3.org/2000/svg" width="32" height="32" viewBox="0 0 32 32">
<title>satisfaction</title>
<path d="M31.457 7.462c0.492-0.48 0.666-1.184 0.454-1.838s-0.767-1.121-1.447-1.22l-2.743-0.399c-0.278-0.040-0.519-0.215-0.643-0.467l-1.227-2.486c-0.304-0.616-0.92-0.999-1.607-0.999s-1.303 0.383-1.608 0.999l-1.227 2.486c-0.125 0.252-0.365 0.427-0.643 0.467l-2.743 0.399c-0.68 0.099-1.235 0.566-1.447 1.22s-0.039 1.358 0.454 1.838l1.985 1.935c0.201 0.196 0.293 0.479 0.246 0.756l-0.469 2.732c-0.116 0.677 0.157 1.349 0.713 1.753 0.314 0.228 0.682 0.344 1.052 0.344 0.285 0 0.571-0.069 0.836-0.208l2.454-1.29c0.249-0.131 0.546-0.131 0.795 0l2.454 1.29c0.608 0.32 1.332 0.268 1.888-0.136s0.829-1.076 0.713-1.753l-0.090-0.523c-0.044-0.255-0.287-0.427-0.542-0.383s-0.427 0.286-0.383 0.542l0.090 0.523c0.056 0.328-0.071 0.64-0.34 0.836s-0.605 0.22-0.9 0.065l-2.454-1.29c-0.522-0.275-1.146-0.275-1.668 0l-2.454 1.29c-0.294 0.155-0.631 0.13-0.9-0.065s-0.396-0.508-0.34-0.836l0.469-2.732c0.1-0.582-0.093-1.175-0.515-1.587l-1.985-1.935c-0.238-0.232-0.319-0.559-0.216-0.876s0.361-0.534 0.69-0.581l2.743-0.399c0.584-0.085 1.089-0.451 1.35-0.981l1.227-2.486c0.147-0.298 0.434-0.476 0.766-0.476s0.619 0.178 0.766 0.476l1.227 2.486c0.261 0.529 0.766 0.896 1.35 0.981l2.743 0.399c0.329 0.048 0.587 0.265 0.69 0.581s0.022 0.644-0.216 0.876l-1.985 1.935c-0.423 0.412-0.615 1.005-0.515 1.587l0.016 0.091c0.044 0.255 0.286 0.427 0.542 0.383s0.427-0.286 0.383-0.542l-0.016-0.091c-0.048-0.277 0.044-0.56 0.246-0.756l1.985-1.935z"></path>
<path d="M25.785 20.309c0.333-0.386 0.534-0.887 0.534-1.435 0-1.214-0.987-2.201-2.201-2.201l-7.141-0.009c-0.001-0.003-0.080-0.232-0.13-0.339-0-0.001-0.001-0.001-0.001-0.002-0.108-0.232-0.149-0.485-0.117-0.732 0.105-0.801 0.131-1.633 0.151-2.301 0.054-1.714-0.288-2.966-1.046-3.828-0.761-0.866-1.855-1.36-3.006-1.36-0.009 0-0.017 0-0.026 0-0.646 0.004-1.172 0.539-1.172 1.192v2.084c0 1.326-0.215 3.171-1.237 4.431-1.085 1.336-2.022 1.325-3.573 1.306-0.053-0.001-0.107-0.001-0.161-0.002v-0.563c0-0.934-0.76-1.693-1.693-1.693h-3.273c-0.934-0-1.693 0.76-1.693 1.693v4.711c0 0.259 0.21 0.469 0.469 0.469s0.469-0.21 0.469-0.469v-4.711c0-0.416 0.339-0.755 0.755-0.755h3.273c0.416 0 0.755 0.339 0.755 0.755v13.703c0 0.416-0.339 0.755-0.755 0.755h-3.273c-0.416 0-0.755-0.339-0.755-0.755v-6.852c0-0.259-0.21-0.469-0.469-0.469s-0.469 0.21-0.469 0.469v6.852c0 0.934 0.76 1.693 1.693 1.693h3.273c0.934 0 1.693-0.76 1.693-1.693v-0.709h0.634c0.307 0 0.611 0.107 0.855 0.302 0.063 0.050 0.137 0.113 0.222 0.186 0.587 0.501 1.679 1.433 3.242 1.433l11.516 0c1.214 0 2.201-0.987 2.201-2.201 0-0.524-0.184-1.006-0.492-1.384 0.861-0.299 1.481-1.118 1.481-2.079 0-0.548-0.202-1.049-0.534-1.435 0.791-0.334 1.348-1.118 1.348-2.029s-0.557-1.695-1.348-2.029zM20.114 17.611h4.004c0.696 0 1.263 0.567 1.263 1.263s-0.567 1.263-1.263 1.263h-4.004c-0.696 0-1.263-0.566-1.263-1.263s0.567-1.263 1.263-1.263zM17.324 30.528h-5.711c-1.217 0-2.069-0.727-2.632-1.209-0.088-0.075-0.171-0.146-0.247-0.207-0.41-0.326-0.921-0.506-1.44-0.506h-0.634v-10.555c0.050 0.001 0.1 0.001 0.15 0.002 1.644 0.020 2.942 0.036 4.313-1.653 0.66-0.813 1.447-2.345 1.447-5.022v-2.084c0-0.139 0.108-0.253 0.24-0.254 0.006-0 0.013-0 0.019-0 0.869 0 1.728 0.389 2.303 1.042 0.593 0.674 0.859 1.714 0.813 3.179-0.020 0.648-0.045 1.454-0.144 2.209-0.055 0.425 0.013 0.857 0.197 1.251 0.001 0.002 0.002 0.005 0.003 0.007 0.002 0.003 0.003 0.007 0.005 0.011 0 0.001 0.001 0.001 0.001 0.002 0.15 0.352 0.264 0.735 0.282 1.121 0.022 0.48-0.075 0.964-0.289 1.44-0.004 0.010-0.448 0.988-1.671 1.531-0.237 0.105-0.344 0.382-0.239 0.619 0.363 0.819 1.712-0.412 2.045-0.757 0.282-0.293 0.555-0.635 0.721-1.010 0.274-0.609 0.398-1.236 0.369-1.865-0.003-0.070-0.010-0.143-0.018-0.216h1.112c-0.255 0.359-0.406 0.798-0.406 1.271 0 0.911 0.557 1.695 1.348 2.029-0.333 0.386-0.534 0.887-0.534 1.435s0.202 1.049 0.534 1.435c-0.791 0.334-1.348 1.118-1.348 2.029 0 0.524 0.184 1.006 0.492 1.384-0.861 0.299-1.481 1.118-1.481 2.079 0 0.469 0.148 0.905 0.4 1.263zM23.13 30.528l-4.007-0c-0.695-0.001-1.26-0.567-1.26-1.263s0.567-1.263 1.263-1.263h4.004c0.696 0 1.263 0.566 1.263 1.263s-0.567 1.263-1.263 1.263zM24.119 27.064h-4.004c-0.696 0-1.263-0.567-1.263-1.263s0.567-1.263 1.263-1.263h4.004c0.696 0 1.263 0.567 1.263 1.263s-0.567 1.263-1.263 1.263zM24.932 23.601h-4.004c-0.696 0-1.263-0.567-1.263-1.263s0.567-1.263 1.263-1.263h4.004c0.696 0 1.263 0.567 1.263 1.263s-0.566 1.263-1.263 1.263z"></path>
</svg>
