<!-- Generated by IcoMoon.io -->
<svg version="1.1" xmlns="http://www.w3.org/2000/svg" width="32" height="32" viewBox="0 0 32 32">
<title>search-2</title>
<path d="M30.179 29.631c0.476 0.437 0.476 0.873 0 1.31-0.159 0.198-0.377 0.298-0.655 0.298s-0.496-0.099-0.655-0.298l-8.452-8.393c-2.302 1.984-4.98 2.976-8.036 2.976-3.413 0-6.329-1.21-8.75-3.631s-3.631-5.337-3.631-8.75 1.21-6.329 3.631-8.75c2.421-2.421 5.337-3.631 8.75-3.631s6.329 1.21 8.75 3.631c2.421 2.421 3.631 5.337 3.631 8.75 0 3.056-0.992 5.734-2.976 8.036l8.393 8.452zM4.94 20.583c2.063 2.024 4.544 3.036 7.44 3.036s5.357-1.012 7.381-3.036c2.063-2.064 3.095-4.544 3.095-7.44s-1.032-5.357-3.095-7.381c-2.024-2.063-4.484-3.095-7.381-3.095s-5.377 1.032-7.44 3.095c-2.024 2.024-3.036 4.484-3.036 7.381s1.012 5.377 3.036 7.44z"></path>
</svg>
