<!-- Generated by IcoMoon.io -->
<svg version="1.1" xmlns="http://www.w3.org/2000/svg" width="35" height="32" viewBox="0 0 35 32">
<title>shopping-bag</title>
<path fill="#514633" d="M9.762 20.107c0.198-0.198 0.437-0.298 0.714-0.298s0.496 0.099 0.655 0.298c0.198 0.159 0.298 0.377 0.298 0.655v5.714c0 0.278-0.099 0.516-0.298 0.714-0.159 0.159-0.377 0.238-0.655 0.238s-0.516-0.079-0.714-0.238c-0.159-0.199-0.238-0.437-0.238-0.714v-5.714c0-0.278 0.079-0.496 0.238-0.655zM16.428 20.107c0.199-0.198 0.437-0.298 0.714-0.298s0.496 0.099 0.655 0.298c0.198 0.159 0.298 0.377 0.298 0.655v5.714c0 0.278-0.099 0.516-0.298 0.714-0.159 0.159-0.377 0.238-0.655 0.238s-0.516-0.079-0.714-0.238c-0.159-0.199-0.238-0.437-0.238-0.714v-5.714c0-0.278 0.079-0.496 0.238-0.655zM23.095 20.107c0.199-0.198 0.437-0.298 0.714-0.298s0.496 0.099 0.655 0.298c0.198 0.159 0.298 0.377 0.298 0.655v5.714c0 0.278-0.099 0.516-0.298 0.714-0.159 0.159-0.377 0.238-0.655 0.238s-0.516-0.079-0.714-0.238c-0.159-0.199-0.238-0.437-0.238-0.714v-5.714c0-0.278 0.079-0.496 0.238-0.655zM33.333 12.19c0.278 0 0.496 0.099 0.655 0.298 0.198 0.159 0.298 0.377 0.298 0.655s-0.099 0.516-0.298 0.714c-0.159 0.159-0.377 0.238-0.655 0.238h-0.952l-3.155 14.167c-0.198 0.873-0.655 1.587-1.369 2.143-0.675 0.556-1.448 0.833-2.321 0.833h-16.786c-0.873 0-1.667-0.278-2.381-0.833-0.675-0.556-1.111-1.27-1.31-2.143l-3.155-14.167h-0.952c-0.278 0-0.516-0.079-0.714-0.238-0.159-0.198-0.238-0.437-0.238-0.714s0.079-0.496 0.238-0.655c0.198-0.198 0.436-0.298 0.714-0.298h8.393l4.048-10.833c0.079-0.238 0.238-0.397 0.476-0.476 0.238-0.119 0.476-0.139 0.714-0.060 0.278 0.079 0.456 0.238 0.536 0.476 0.119 0.238 0.139 0.496 0.060 0.774l-3.81 10.119h11.548l-3.81-10.119c-0.040-0.198-0.060-0.377-0.060-0.536 0.040-0.159 0.099-0.298 0.179-0.417 0.119-0.119 0.258-0.218 0.417-0.298 0.198-0.040 0.377-0.040 0.536 0 0.159 0 0.298 0.060 0.417 0.179 0.119 0.079 0.218 0.198 0.298 0.357l4.048 10.833h8.393zM27.381 27.845l3.036-13.75h-4.762l0.952 2.5c0.079 0.278 0.060 0.536-0.059 0.774-0.079 0.238-0.238 0.397-0.476 0.476-0.119 0.040-0.238 0.060-0.357 0.060-0.437 0-0.734-0.198-0.893-0.595l-1.191-3.214h-12.976l-1.19 3.214c-0.159 0.397-0.456 0.595-0.893 0.595-0.119 0-0.238-0.020-0.357-0.060-0.238-0.079-0.417-0.238-0.536-0.476-0.079-0.238-0.079-0.496 0-0.774l0.952-2.5h-4.762l3.036 13.75c0.119 0.437 0.337 0.794 0.655 1.072 0.357 0.278 0.754 0.417 1.19 0.417h16.786c0.437 0 0.814-0.139 1.131-0.417 0.357-0.278 0.595-0.635 0.714-1.072z"></path>
</svg>
