<!-- Generated by IcoMoon.io -->
<svg version="1.1" xmlns="http://www.w3.org/2000/svg" width="37" height="32" viewBox="0 0 37 32">
<title>shoping</title>
<path d="M35.2 10.045h-4.533l-6.347-9.825c-0.16-0.274-0.48-0.329-0.747-0.165s-0.32 0.494-0.16 0.768l5.973 9.166h-21.44l5.973-9.111c0.16-0.274 0.107-0.604-0.16-0.768s-0.587-0.11-0.747 0.165l-6.347 9.77h-4.533c-0.587 0-1.173 0.165-1.547 0.604-0.427 0.384-0.587 0.988-0.587 1.592v1.098c0 0.604 0.16 1.208 0.587 1.592 0.373 0.439 0.96 0.604 1.547 0.604h0.16l6.507 16.137c0.107 0.22 0.267 0.329 0.48 0.329h18.72c0.213 0 0.427-0.11 0.48-0.329l6.507-16.137h0.213c0.587 0 1.173-0.165 1.547-0.604 0.373-0.384 0.587-0.988 0.587-1.592v-1.098c0-0.604-0.16-1.208-0.587-1.592-0.373-0.439-0.96-0.604-1.547-0.604zM19.2 23.767h5.12l-1.387 7.136h-3.733v-7.136zM18.133 30.902h-3.733l-1.387-7.136h5.12v7.136zM19.2 22.669v-7.135h6.667l-1.387 7.135h-5.28zM18.133 22.669h-5.28l-1.387-7.135h6.667v7.135zM10.347 15.533l1.387 7.135h-5.387l-2.88-7.135h6.88zM6.773 23.767h5.173l1.387 7.136h-3.68l-2.88-7.136zM27.68 30.902h-3.68l1.387-7.136h5.173l-2.88 7.136zM30.987 22.669h-5.387l1.387-7.135h6.88l-2.88 7.135zM36.267 13.338c0 0.439-0.107 0.659-0.267 0.823s-0.373 0.275-0.8 0.275h-33.067c-0.427 0-0.64-0.11-0.8-0.275s-0.267-0.384-0.267-0.823v-1.098c0-0.439 0.107-0.659 0.267-0.823s0.373-0.274 0.8-0.274h33.067c0.427 0 0.64 0.11 0.8 0.274s0.267 0.384 0.267 0.823v1.098z"></path>
</svg>
