<!-- Generated by IcoMoon.io -->
<svg version="1.1" xmlns="http://www.w3.org/2000/svg" width="28" height="32" viewBox="0 0 28 32">
<title>sliders-v</title>
<path d="M17 22h-1.5v-21c0-0.55-0.45-1-1-1h-1c-0.55 0-1 0.45-1 1v21h-1.5c-0.55 0-1 0.45-1 1v2c0 0.55 0.45 1 1 1h1.5v5c0 0.55 0.45 1 1 1h1c0.55 0 1-0.45 1-1v-5h1.5c0.55 0 1-0.45 1-1v-2c0-0.55-0.45-1-1-1zM7 6h-1.5v-5c0-0.55-0.45-1-1-1h-1c-0.55 0-1 0.45-1 1v5h-1.5c-0.55 0-1 0.45-1 1v2c0 0.55 0.45 1 1 1h1.5v21c0 0.55 0.45 1 1 1h1c0.55 0 1-0.45 1-1v-21h1.5c0.55 0 1-0.45 1-1v-2c0-0.55-0.45-1-1-1zM27 14h-1.5v-13c0-0.55-0.45-1-1-1h-1c-0.55 0-1 0.45-1 1v13h-1.5c-0.55 0-1 0.45-1 1v2c0 0.55 0.45 1 1 1h1.5v13c0 0.55 0.45 1 1 1h1c0.55 0 1-0.45 1-1v-13h1.5c0.55 0 1-0.45 1-1v-2c0-0.55-0.45-1-1-1z"></path>
</svg>
