<!-- Generated by IcoMoon.io -->
<svg version="1.1" xmlns="http://www.w3.org/2000/svg" width="32" height="32" viewBox="0 0 32 32">
<title>th-large</title>
<path d="M6 0c0.542 0 1 0.208 1.375 0.625 0.417 0.375 0.625 0.833 0.625 1.375v4c0 0.542-0.208 1.021-0.625 1.438-0.375 0.375-0.833 0.563-1.375 0.563h-4c-0.542 0-1.021-0.188-1.438-0.563-0.375-0.417-0.563-0.896-0.563-1.438v-4c0-0.542 0.188-1 0.563-1.375 0.417-0.417 0.896-0.625 1.438-0.625h4zM18 0c0.542 0 1 0.208 1.375 0.625 0.417 0.375 0.625 0.833 0.625 1.375v4c0 0.542-0.208 1.021-0.625 1.438-0.375 0.375-0.833 0.563-1.375 0.563h-4c-0.542 0-1.021-0.188-1.438-0.563-0.375-0.417-0.563-0.896-0.563-1.438v-4c0-0.542 0.188-1 0.563-1.375 0.417-0.417 0.896-0.625 1.438-0.625h4zM30 0c0.542 0 1 0.208 1.375 0.625 0.417 0.375 0.625 0.833 0.625 1.375v4c0 0.542-0.208 1.021-0.625 1.438-0.375 0.375-0.833 0.563-1.375 0.563h-4c-0.542 0-1.021-0.188-1.438-0.563-0.375-0.417-0.563-0.896-0.563-1.438v-4c0-0.542 0.188-1 0.563-1.375 0.417-0.417 0.896-0.625 1.438-0.625h4zM6 24c0.542 0 1 0.208 1.375 0.625 0.417 0.375 0.625 0.833 0.625 1.375v4c0 0.542-0.208 1-0.625 1.375-0.375 0.417-0.833 0.625-1.375 0.625h-4c-0.542 0-1.021-0.208-1.438-0.625-0.375-0.375-0.563-0.833-0.563-1.375v-4c0-0.542 0.188-1 0.563-1.375 0.417-0.417 0.896-0.625 1.438-0.625h4zM18 24c0.542 0 1 0.208 1.375 0.625 0.417 0.375 0.625 0.833 0.625 1.375v4c0 0.542-0.208 1-0.625 1.375-0.375 0.417-0.833 0.625-1.375 0.625h-4c-0.542 0-1.021-0.208-1.438-0.625-0.375-0.375-0.563-0.833-0.563-1.375v-4c0-0.542 0.188-1 0.563-1.375 0.417-0.417 0.896-0.625 1.438-0.625h4zM30 24c0.542 0 1 0.208 1.375 0.625 0.417 0.375 0.625 0.833 0.625 1.375v4c0 0.542-0.208 1-0.625 1.375-0.375 0.417-0.833 0.625-1.375 0.625h-4c-0.542 0-1.021-0.208-1.438-0.625-0.375-0.375-0.563-0.833-0.563-1.375v-4c0-0.542 0.188-1 0.563-1.375 0.417-0.417 0.896-0.625 1.438-0.625h4zM6 12c0.542 0 1 0.208 1.375 0.625 0.417 0.375 0.625 0.833 0.625 1.375v4c0 0.542-0.208 1.021-0.625 1.438-0.375 0.375-0.833 0.563-1.375 0.563h-4c-0.542 0-1.021-0.188-1.438-0.563-0.375-0.417-0.563-0.896-0.563-1.438v-4c0-0.542 0.188-1 0.563-1.375 0.417-0.417 0.896-0.625 1.438-0.625h4zM18 12c0.542 0 1 0.208 1.375 0.625 0.417 0.375 0.625 0.833 0.625 1.375v4c0 0.542-0.208 1.021-0.625 1.438-0.375 0.375-0.833 0.563-1.375 0.563h-4c-0.542 0-1.021-0.188-1.438-0.563-0.375-0.417-0.563-0.896-0.563-1.438v-4c0-0.542 0.188-1 0.563-1.375 0.417-0.417 0.896-0.625 1.438-0.625h4zM30 12c0.542 0 1 0.208 1.375 0.625 0.417 0.375 0.625 0.833 0.625 1.375v4c0 0.542-0.208 1.021-0.625 1.438-0.375 0.375-0.833 0.563-1.375 0.563h-4c-0.542 0-1.021-0.188-1.438-0.563-0.375-0.417-0.563-0.896-0.563-1.438v-4c0-0.542 0.188-1 0.563-1.375 0.417-0.417 0.896-0.625 1.438-0.625h4z"></path>
</svg>
