<!-- Generated by IcoMoon.io -->
<svg version="1.1" xmlns="http://www.w3.org/2000/svg" width="49" height="32" viewBox="0 0 49 32">
<title>theme-long-arrow-right</title>
<path d="M33.846 30.769c-0.641 0-1.186-0.224-1.635-0.673s-0.673-0.994-0.673-1.635c0-0.641 0.224-1.186 0.673-1.635l9.135-9.135h-39.039c-0.641 0-1.186-0.224-1.635-0.673s-0.673-0.994-0.673-1.635c0-0.641 0.224-1.186 0.673-1.635s0.994-0.673 1.635-0.673h39.039l-9.135-9.135c-0.449-0.449-0.673-0.994-0.673-1.635s0.224-1.186 0.673-1.635c0.449-0.449 0.994-0.673 1.635-0.673s1.186 0.224 1.635 0.673l13.077 13.077c0.449 0.449 0.673 0.994 0.673 1.635s-0.224 1.186-0.673 1.635l-13.077 13.077c-0.449 0.449-0.994 0.673-1.635 0.673z"></path>
</svg>
