<!-- Generated by IcoMoon.io -->
<svg version="1.1" xmlns="http://www.w3.org/2000/svg" width="42" height="32" viewBox="0 0 42 32">
<title>tracking</title>
<path d="M41.346 17.563l-8.464-8.464c-0.189-0.191-0.415-0.342-0.663-0.445s-0.515-0.155-0.784-0.155h-11.707v1.364h3.409v10.227h1.364v-10.227h6.935c0.090-0 0.178 0.018 0.261 0.052s0.158 0.085 0.222 0.148l1.164 1.164h-3.127c-0.362 0-0.709 0.144-0.964 0.399s-0.399 0.603-0.399 0.964v6.136c0 0.362 0.144 0.709 0.399 0.964s0.603 0.399 0.964 0.399h10.227v5.455c0 0.181-0.072 0.354-0.2 0.482s-0.301 0.2-0.482 0.2h-1.418c-0.163-1.135-0.73-2.173-1.596-2.924s-1.975-1.165-3.122-1.165c-1.147 0-2.255 0.413-3.122 1.165s-1.433 1.789-1.596 2.924h-9.655c-0.163-1.135-0.73-2.173-1.596-2.924s-1.975-1.165-3.122-1.165c-1.147 0-2.255 0.413-3.122 1.165s-1.433 1.789-1.596 2.924h-1.418c-0.181 0-0.354-0.072-0.482-0.2s-0.2-0.301-0.2-0.482v-6.136h-1.364v6.136c0 0.543 0.215 1.063 0.599 1.446s0.904 0.599 1.446 0.599h1.418c0.149 1.037 0.636 1.995 1.385 2.727h-10.303v1.364h32.727c1.146-0.002 2.254-0.417 3.12-1.168s1.433-1.789 1.598-2.923h1.418c0.542 0 1.063-0.215 1.446-0.599s0.599-0.904 0.599-1.446v-7.5c-0-0.181-0.072-0.354-0.2-0.482zM10.864 26.909c0-0.674 0.2-1.333 0.575-1.894s0.907-0.998 1.53-1.256c0.623-0.258 1.308-0.326 1.97-0.194s1.269 0.456 1.746 0.933c0.477 0.477 0.801 1.084 0.933 1.746s0.064 1.347-0.194 1.97c-0.258 0.623-0.695 1.155-1.256 1.53s-1.22 0.574-1.894 0.574c-0.904-0.001-1.77-0.361-2.409-1s-0.999-1.506-1-2.409zM17.606 30.318c0.749-0.732 1.236-1.691 1.385-2.727h9.655c0.149 1.037 0.636 1.995 1.385 2.727h-12.424zM33.364 30.318c-0.674 0-1.333-0.2-1.894-0.574s-0.998-0.907-1.256-1.53c-0.258-0.623-0.326-1.308-0.194-1.97s0.456-1.269 0.933-1.746c0.477-0.477 1.084-0.801 1.746-0.933s1.347-0.064 1.97 0.194c0.623 0.258 1.155 0.695 1.53 1.256s0.575 1.22 0.575 1.894c-0.001 0.904-0.361 1.77-1 2.409s-1.506 0.999-2.409 1zM29.955 18.727v-6.136h4.49l5.737 5.737v0.399h-10.227z"></path>
<path d="M14.955 26.227h-1.364v1.364h1.364v-1.364z"></path>
<path d="M34.045 26.227h-1.364v1.364h1.364v-1.364z"></path>
<path d="M4.045 24.182h-3.409v1.364h3.409v-1.364z"></path>
<path d="M4.045 21.455h-2.045v1.364h2.045v-1.364z"></path>
<path d="M4.045 18.727h-1.364v1.364h1.364v-1.364z"></path>
<path d="M9.5 18.045c1.753 0 3.467-0.52 4.924-1.494s2.594-2.358 3.265-3.978c0.671-1.62 0.846-3.402 0.504-5.121s-1.186-3.299-2.426-4.538c-1.24-1.24-2.819-2.084-4.538-2.426s-3.502-0.166-5.121 0.504-3.004 1.807-3.978 3.265c-0.974 1.458-1.494 3.171-1.494 4.924 0.003 2.35 0.937 4.603 2.599 6.264s3.915 2.596 6.265 2.599zM9.5 1.682c1.483 0 2.933 0.44 4.167 1.264s2.195 1.995 2.762 3.366c0.568 1.37 0.716 2.878 0.427 4.333s-1.004 2.791-2.053 3.84c-1.049 1.049-2.385 1.763-3.84 2.053s-2.963 0.141-4.333-0.427c-1.37-0.568-2.542-1.529-3.366-2.762s-1.264-2.683-1.264-4.167c0.002-1.988 0.793-3.895 2.199-5.301s3.312-2.197 5.301-2.199z"></path>
<path d="M9.5 15.318c0.181 0 0.354-0.072 0.482-0.2 0.439-0.439 4.291-4.375 4.291-7.3 0-1.266-0.503-2.48-1.398-3.375s-2.109-1.398-3.375-1.398c-1.266 0-2.48 0.503-3.375 1.398s-1.398 2.109-1.398 3.375c0 2.925 3.852 6.861 4.291 7.3 0.128 0.128 0.301 0.2 0.482 0.2zM9.5 4.409c0.904 0.001 1.77 0.361 2.409 1s0.999 1.506 1 2.409c0 1.75-2.146 4.453-3.409 5.83-1.263-1.377-3.409-4.081-3.409-5.83 0.001-0.904 0.361-1.77 1-2.409s1.506-0.999 2.409-1z"></path>
<path d="M11.545 7.818c0-0.404-0.12-0.8-0.345-1.136s-0.544-0.599-0.918-0.753c-0.374-0.155-0.785-0.195-1.182-0.116s-0.761 0.274-1.047 0.56c-0.286 0.286-0.481 0.651-0.56 1.047s-0.038 0.808 0.116 1.182c0.155 0.374 0.417 0.693 0.753 0.918s0.732 0.345 1.136 0.345c0.542 0 1.063-0.216 1.446-0.599s0.599-0.904 0.599-1.446zM8.818 7.818c0-0.135 0.040-0.267 0.115-0.379s0.181-0.2 0.306-0.251c0.125-0.052 0.262-0.065 0.394-0.039s0.254 0.091 0.349 0.187 0.16 0.217 0.187 0.349c0.026 0.132 0.013 0.269-0.039 0.394s-0.139 0.231-0.251 0.306c-0.112 0.075-0.244 0.115-0.379 0.115-0.181 0-0.354-0.072-0.482-0.2s-0.2-0.301-0.2-0.482z"></path>
<path d="M29.273 21.455h-2.727v1.364h2.727v-1.364z"></path>
</svg>
