<!-- Generated by IcoMoon.io -->
<svg version="1.1" xmlns="http://www.w3.org/2000/svg" width="32" height="32" viewBox="0 0 32 32">
<title>tweet</title>
<path d="M31.855 5.828c-0.18-0.212-0.477-0.28-0.732-0.168-0.38 0.168-0.768 0.316-1.16 0.443 0.509-0.642 0.905-1.374 1.163-2.166 0.080-0.246-0.001-0.516-0.204-0.677s-0.485-0.181-0.709-0.050c-1.092 0.644-2.265 1.107-3.492 1.38-1.282-1.225-3.013-1.922-4.803-1.922-3.821 0-6.931 3.093-6.931 6.896 0 0.25 0.014 0.5 0.041 0.752-0.982-0.093-1.955-0.268-2.9-0.524-0.333-0.090-0.676 0.106-0.767 0.437s0.106 0.673 0.439 0.764c1.281 0.347 2.607 0.556 3.942 0.622 0.196 0.010 0.383-0.072 0.509-0.22s0.175-0.347 0.132-0.537c-0.097-0.43-0.146-0.865-0.146-1.293 0-3.116 2.548-5.652 5.681-5.652 1.565 0 3.075 0.65 4.141 1.782 0.147 0.156 0.364 0.227 0.575 0.185 0.858-0.166 1.693-0.415 2.499-0.745-0.452 0.623-1.028 1.154-1.7 1.554-0.253 0.151-0.365 0.457-0.27 0.734s0.372 0.452 0.665 0.417c0.577-0.068 1.149-0.174 1.712-0.318-0.512 0.533-1.075 1.020-1.683 1.454-0.167 0.121-0.265 0.316-0.26 0.521l0.019 0.805c-0.004 8.466-6.481 17.22-17.316 17.22-2.476 0-4.902-0.524-7.134-1.53 2.628-0.197 5.092-1.146 7.183-2.772 0.208-0.162 0.292-0.436 0.208-0.686s-0.316-0.42-0.58-0.425c-2.092-0.044-3.964-1.218-4.92-3.009 0.068 0.002 0.137 0.003 0.206 0.003 0.62 0 1.232-0.078 1.82-0.234 0.281-0.074 0.473-0.331 0.465-0.62s-0.216-0.533-0.5-0.591c-2.332-0.47-4.098-2.347-4.479-4.628 0.689 0.251 1.404 0.387 2.134 0.405 0.278 0.006 0.528-0.17 0.612-0.434s-0.018-0.552-0.25-0.705c-1.582-1.048-2.527-2.805-2.527-4.7 0-0.7 0.129-1.39 0.378-2.033 1.019 1.119 2.169 2.109 3.43 2.952 0.287 0.191 0.675 0.116 0.868-0.17 0.191-0.286 0.115-0.672-0.172-0.864-1.426-0.952-2.7-2.108-3.789-3.436-0.13-0.157-0.329-0.242-0.532-0.227s-0.388 0.13-0.491 0.306c-0.616 1.044-0.941 2.244-0.941 3.472 0 1.516 0.496 2.96 1.382 4.135-0.169-0.073-0.335-0.156-0.5-0.245-0.194-0.107-0.429-0.104-0.62 0.008s-0.308 0.316-0.308 0.535v0.076c0 2.3 1.154 4.391 2.957 5.656-0.004-0.001-0.007-0.002-0.012-0.002-0.217-0.041-0.439 0.036-0.585 0.2s-0.194 0.393-0.126 0.602c0.733 2.265 2.572 3.956 4.815 4.556-1.855 1.097-3.958 1.671-6.164 1.671-0.478 0-0.947-0.026-1.432-0.080-0.288-0.032-0.562 0.138-0.659 0.411s0.007 0.575 0.252 0.732c2.992 1.908 6.453 2.916 10.011 2.916 2.861 0 5.539-0.565 7.958-1.681 2.22-1.023 4.181-2.485 5.83-4.346 3.036-3.427 4.778-7.963 4.778-12.444 0-0.004 0-0.010 0-0.014l-0.010-0.492c1.19-0.897 2.212-1.977 3.042-3.214 0.154-0.23 0.137-0.534-0.042-0.746zM8.92 9.951l0.029 0.013c0.084 0.038 0.172 0.057 0.26 0.057 0.236 0 0.463-0.135 0.569-0.363 0.144-0.312 0.006-0.682-0.308-0.824l-0.026-0.012c-0.315-0.146-0.685-0.010-0.83 0.302s-0.008 0.682 0.306 0.826zM23.222 18.924c0.212 0 0.42-0.108 0.538-0.303 0.178-0.294 0.082-0.676-0.214-0.853s-0.68-0.081-0.858 0.213l-0.001 0.002c-0.178 0.294-0.081 0.676 0.215 0.852 0.1 0.060 0.211 0.089 0.32 0.089zM18.221 24.044c1.588-0.904 2.998-2.091 4.188-3.528 0.22-0.265 0.181-0.657-0.084-0.876s-0.66-0.18-0.88 0.084c-1.094 1.321-2.388 2.411-3.844 3.239-0.3 0.171-0.404 0.55-0.233 0.848 0.116 0.201 0.326 0.314 0.543 0.314 0.106 0 0.212-0.026 0.31-0.082z"></path>
</svg>
